<svg width="85" height="85" viewBox="0 0 85 85" fill="none" xmlns="http://www.w3.org/2000/svg">
<rect width="85" height="85" rx="8" fill="white"/>
<g clip-path="url(#clip0_49_9410)">
<path d="M20.875 15H69V52.625H20.875V15Z" fill="#5E5C5C"/>
<path d="M23.5 17.625H66.375V50H23.5V17.625Z" fill="white"/>
<path d="M25.25 19.375H64.625V48.25H25.25V19.375Z" fill="#1395BF"/>
<path d="M17.375 29.875H29.625V52.625H17.375V29.875Z" fill="#5E5C5C"/>
<path d="M17.375 50H29.625V52.625H17.375V50Z" fill="#474545"/>
<path d="M17.375 52.625H29.625V71H17.375V52.625Z" fill="#5E5C5C"/>
<path d="M23.5 71V52.625M23.5 37.75V36M23.5 41.25V39.5" stroke="#474545" stroke-width="2" stroke-miterlimit="10"/>
<path d="M20.875 25.5H26.125V33.375H20.875V25.5Z" fill="#CFD3D6"/>
<path d="M23.5 25.5C25.9162 25.5 27.875 23.5412 27.875 21.125C27.875 18.7088 25.9162 16.75 23.5 16.75C21.0838 16.75 19.125 18.7088 19.125 21.125C19.125 23.5412 21.0838 25.5 23.5 25.5Z" fill="#EFF4F7"/>
<path d="M23.5 28.125C25.9162 28.125 27.875 26.1662 27.875 23.75C27.875 21.3338 25.9162 19.375 23.5 19.375C21.0838 19.375 19.125 21.3338 19.125 23.75C19.125 26.1662 21.0838 28.125 23.5 28.125Z" fill="#EFF4F7"/>
<path d="M19.125 21.125H27.875V23.75H19.125V21.125Z" fill="#EFF4F7"/>
<path d="M17.375 50H13V34.25C13 33.1309 13.427 32.0109 14.2819 31.1569C14.6875 30.7498 15.1696 30.427 15.7004 30.207C16.2313 29.987 16.8004 29.8742 17.375 29.875V50Z" fill="#474545"/>
<path d="M13 50H17.375V52.625H13V50Z" fill="#DFE3E6"/>
<path d="M29.625 29.875H44.5V34.25H29.625V29.875Z" fill="#474545"/>
<path d="M44.5 29.875H47.125V34.25H44.5V29.875Z" fill="#DFE3E6"/>
<path d="M27 29.875C27 30.8033 26.6313 31.6935 25.9749 32.3499C25.3185 33.0063 24.4283 33.375 23.5 33.375C22.5717 33.375 21.6815 33.0063 21.0251 32.3499C20.3687 31.6935 20 30.8033 20 29.875" stroke="#474545" stroke-width="2" stroke-miterlimit="10"/>
<path d="M69 67.5C69.0005 67.0403 68.9102 66.5851 68.7342 66.1604C68.5582 65.7357 68.3 65.3501 67.9745 65.0255C67.6499 64.7 67.2643 64.4418 66.8396 64.2658C66.4149 64.0898 65.9597 63.9995 65.5 64H58.5C58.0403 63.9995 57.5851 64.0898 57.1604 64.2658C56.7357 64.4418 56.3501 64.7 56.0255 65.0255C55.7 65.3501 55.4418 65.7357 55.2658 66.1604C55.0898 66.5851 54.9995 67.0403 55 67.5V71H69V67.5Z" fill="#F4608A"/>
<path d="M64.0064 63.7436C63.925 63.6625 63.8605 63.5661 63.8165 63.4599C63.7725 63.3537 63.7499 63.2399 63.75 63.125V62.25H60.25V63.125C60.2503 63.24 60.228 63.3539 60.1841 63.4603C60.1403 63.5666 60.0758 63.6632 59.9945 63.7445C59.9132 63.8258 59.8166 63.8903 59.7103 63.9341C59.6039 63.978 59.49 64.0003 59.375 64C59.375 64.672 59.6314 65.3431 60.1441 65.8559C60.6569 66.3686 61.328 66.625 62 66.625C62.672 66.625 63.3431 66.3686 63.8559 65.8559C64.3686 65.3431 64.625 64.672 64.625 64C64.5101 64.0001 64.3963 63.9775 64.2901 63.9335C64.1839 63.8895 64.0875 63.825 64.0064 63.7436Z" fill="#CFD3D6"/>
<path d="M62 61.375C63.933 61.375 65.5 59.808 65.5 57.875C65.5 55.942 63.933 54.375 62 54.375C60.067 54.375 58.5 55.942 58.5 57.875C58.5 59.808 60.067 61.375 62 61.375Z" fill="#EFF4F7"/>
<path d="M62 63.125C63.933 63.125 65.5 61.558 65.5 59.625C65.5 57.692 63.933 56.125 62 56.125C60.067 56.125 58.5 57.692 58.5 59.625C58.5 61.558 60.067 63.125 62 63.125Z" fill="#EFF4F7"/>
<path d="M58.5 57.875H65.5V59.625H58.5V57.875Z" fill="#EFF4F7"/>
<path d="M46.25 67.5C46.2505 67.0403 46.1602 66.5851 45.9842 66.1604C45.8082 65.7357 45.55 65.3501 45.2245 65.0255C44.8999 64.7 44.5143 64.4418 44.0896 64.2658C43.6649 64.0898 43.2097 63.9995 42.75 64H35.75C35.2903 63.9995 34.8351 64.0898 34.4104 64.2658C33.9857 64.4418 33.6001 64.7 33.2755 65.0255C32.95 65.3501 32.6918 65.7357 32.5158 66.1604C32.3398 66.5851 32.2495 67.0403 32.25 67.5V71H46.25V67.5Z" fill="#F4608A"/>
<path d="M41.2564 63.7436C41.175 63.6625 41.1105 63.5661 41.0665 63.4599C41.0225 63.3537 40.9999 63.2399 41 63.125V62.25H37.5V63.125C37.5003 63.24 37.478 63.3539 37.4341 63.4603C37.3903 63.5666 37.3258 63.6632 37.2445 63.7445C37.1632 63.8258 37.0666 63.8903 36.9603 63.9341C36.8539 63.978 36.74 64.0003 36.625 64C36.625 64.672 36.8814 65.3431 37.3941 65.8559C37.9069 66.3686 38.578 66.625 39.25 66.625C39.922 66.625 40.5931 66.3686 41.1059 65.8559C41.6186 65.3431 41.875 64.672 41.875 64C41.7601 64.0001 41.6463 63.9775 41.5401 63.9335C41.4339 63.8895 41.3375 63.825 41.2564 63.7436Z" fill="#CFD3D6"/>
<path d="M39.25 61.375C41.183 61.375 42.75 59.808 42.75 57.875C42.75 55.942 41.183 54.375 39.25 54.375C37.317 54.375 35.75 55.942 35.75 57.875C35.75 59.808 37.317 61.375 39.25 61.375Z" fill="#EFF4F7"/>
<path d="M39.25 63.125C41.183 63.125 42.75 61.558 42.75 59.625C42.75 57.692 41.183 56.125 39.25 56.125C37.317 56.125 35.75 57.692 35.75 59.625C35.75 61.558 37.317 63.125 39.25 63.125Z" fill="#EFF4F7"/>
<path d="M35.75 57.875H42.75V59.625H35.75V57.875Z" fill="#EFF4F7"/>
<path d="M57.625 67.5C57.6255 67.0403 57.5352 66.5851 57.3592 66.1604C57.1832 65.7357 56.925 65.3501 56.5995 65.0255C56.2749 64.7 55.8893 64.4418 55.4646 64.2658C55.0399 64.0898 54.5847 63.9995 54.125 64H47.125C46.6653 63.9995 46.2101 64.0898 45.7854 64.2658C45.3607 64.4418 44.9751 64.7 44.6505 65.0255C44.325 65.3501 44.0668 65.7357 43.8908 66.1604C43.7148 66.5851 43.6245 67.0403 43.625 67.5V71H57.625V67.5Z" fill="#5E5C5C"/>
<path d="M52.6314 63.7436C52.55 63.6625 52.4855 63.5661 52.4415 63.4599C52.3975 63.3537 52.3749 63.2399 52.375 63.125V62.25H48.875V63.125C48.8753 63.24 48.853 63.3539 48.8091 63.4603C48.7653 63.5666 48.7008 63.6632 48.6195 63.7445C48.5382 63.8258 48.4416 63.8903 48.3353 63.9341C48.2289 63.978 48.115 64.0003 48 64C48 64.672 48.2564 65.3431 48.7691 65.8559C49.2819 66.3686 49.953 66.625 50.625 66.625C51.297 66.625 51.9681 66.3686 52.4809 65.8559C52.9936 65.3431 53.25 64.672 53.25 64C53.1351 64.0001 53.0213 63.9775 52.9151 63.9335C52.8089 63.8895 52.7125 63.825 52.6314 63.7436Z" fill="#CFD3D6"/>
<path d="M50.625 61.375C52.558 61.375 54.125 59.808 54.125 57.875C54.125 55.942 52.558 54.375 50.625 54.375C48.692 54.375 47.125 55.942 47.125 57.875C47.125 59.808 48.692 61.375 50.625 61.375Z" fill="#EFF4F7"/>
<path d="M50.625 63.125C52.558 63.125 54.125 61.558 54.125 59.625C54.125 57.692 52.558 56.125 50.625 56.125C48.692 56.125 47.125 57.692 47.125 59.625C47.125 61.558 48.692 63.125 50.625 63.125Z" fill="#EFF4F7"/>
<path d="M47.125 57.875H54.125V59.625H47.125V57.875Z" fill="#EFF4F7"/>
<path d="M41.875 40.375H43.625M45.375 40.375H47.125M48.875 40.375H50.625" stroke="white" stroke-width="2" stroke-miterlimit="10"/>
</g>
<defs>
<clipPath id="clip0_49_9410">
<rect width="56" height="56" fill="white" transform="translate(13 15)"/>
</clipPath>
</defs>
</svg>
