<svg width="65" height="58" viewBox="0 0 65 58" fill="none" xmlns="http://www.w3.org/2000/svg">
<g id="Group 627736">
<path id="Vector" d="M64.9777 43.7863C64.9778 44.1683 64.9026 44.5466 64.7565 44.8996C64.6103 45.2526 64.3961 45.5734 64.1259 45.8435C63.8558 46.1137 63.535 46.328 63.182 46.4741C62.829 46.6202 62.4507 46.6954 62.0687 46.6953H3.88666C3.50461 46.6954 3.12627 46.6202 2.77328 46.4741C2.42028 46.328 2.09955 46.1137 1.8294 45.8435C1.55924 45.5734 1.34497 45.2526 1.19883 44.8996C1.05268 44.5466 0.97753 44.1683 0.977661 43.7863V3.05927C0.97753 2.67722 1.05268 2.29888 1.19883 1.94589C1.34497 1.59289 1.55924 1.27215 1.8294 1.002C2.09955 0.731851 2.42028 0.51758 2.77328 0.371435C3.12627 0.225291 3.50461 0.150137 3.88666 0.150269H62.0687C62.4507 0.150137 62.829 0.225291 63.182 0.371435C63.535 0.51758 63.8558 0.731851 64.1259 1.002C64.3961 1.27215 64.6103 1.59289 64.7565 1.94589C64.9026 2.29888 64.9778 2.67722 64.9777 3.05927V43.7863Z" fill="#3E3E3F"/>
<path id="Vector_2" d="M24.2506 46.6953H41.7056V54.1503H24.2506V46.6953Z" fill="#E2E4E5"/>
<path id="Vector_3" d="M47.5228 55.6043C47.5228 56.4073 46.8718 57.0593 46.0678 57.0593H19.8868C19.5009 57.0593 19.1308 56.906 18.8579 56.6331C18.5851 56.3603 18.4318 55.9902 18.4318 55.6043C18.4318 55.2184 18.5851 54.8483 18.8579 54.5755C19.1308 54.3026 19.5009 54.1493 19.8868 54.1493H46.0688C46.4544 54.1498 46.8241 54.3033 47.0967 54.5761C47.3693 54.8489 47.5225 55.2187 47.5228 55.6043Z" fill="#F0F1F1"/>
<path id="Vector_4" d="M64.9777 43.7863V35.0593H0.977661V43.7863C0.977926 44.5578 1.28449 45.2975 1.82998 45.843C2.37547 46.3885 3.11523 46.6951 3.88666 46.6953H62.0687C62.8401 46.6951 63.5799 46.3885 64.1253 45.843C64.6708 45.2975 64.9774 44.5578 64.9777 43.7863Z" fill="white"/>
<path id="Vector_5" d="M32.9777 44.9684C31.9413 44.9673 30.9477 44.5551 30.2148 43.8223C29.482 43.0894 29.0698 42.0958 29.0687 41.0594C29.0687 38.9044 30.8227 37.1504 32.9777 37.1504C35.1327 37.1504 36.8867 38.9034 36.8867 41.0594C36.8857 42.0958 36.4735 43.0894 35.7406 43.8223C35.0078 44.5551 34.0141 44.9673 32.9777 44.9684ZM32.9777 39.1504C32.4715 39.1507 31.9861 39.3519 31.6282 39.7098C31.2702 40.0678 31.069 40.5532 31.0687 41.0594C31.0687 42.1124 31.9247 42.9684 32.9777 42.9684C34.0307 42.9684 34.8867 42.1124 34.8867 41.0594C34.8862 40.5533 34.6849 40.068 34.327 39.7101C33.9691 39.3522 33.4839 39.1509 32.9777 39.1504Z" fill="#CFD3D4"/>
<path id="Vector_6" d="M0.977661 2.96833V34.9683H20.7017L55.6107 0.0593262H3.88666C3.11523 0.0595912 2.37547 0.36616 1.82998 0.911646C1.28449 1.45713 0.977926 2.19689 0.977661 2.96833Z" fill="#5B5C5F"/>
<g id="Group">
<path id="Vector_7" d="M8.39172 7.54834C8.39172 6.44434 8.76972 5.82434 9.49572 5.82434C10.2227 5.82434 10.5997 6.44434 10.5997 7.54834C10.5997 8.65734 10.2217 9.27734 9.49572 9.27734C8.76972 9.27734 8.39172 8.65734 8.39172 7.54834ZM10.1407 7.54834C10.1407 6.57434 9.90372 6.17734 9.49672 6.17734C9.09472 6.17734 8.85272 6.57434 8.85272 7.54834C8.85272 8.52734 9.09472 8.92434 9.49672 8.92434C9.90272 8.92334 10.1407 8.52634 10.1407 7.54834ZM9.49572 7.23334C9.67972 7.23334 9.81572 7.37334 9.81572 7.54834C9.81572 7.72734 9.67972 7.86834 9.49572 7.86834C9.45386 7.86862 9.41236 7.86049 9.37369 7.84445C9.33502 7.8284 9.29996 7.80476 9.27059 7.77492C9.24121 7.74508 9.21813 7.70966 9.20269 7.67074C9.18726 7.63182 9.17979 7.5902 9.18072 7.54834C9.18072 7.37334 9.31672 7.23334 9.49572 7.23334ZM12.3857 6.37134L11.5867 6.85534L11.3737 6.54534L12.4397 5.88134H12.8317V8.86034H13.5147V9.21934H11.5677V8.86034H12.3867L12.3857 6.37134ZM19.0377 6.33234L19.2507 6.66634L17.5557 7.70334L19.2507 8.74434L19.0177 9.06934L17.1717 7.91634V7.48534L19.0377 6.33234ZM21.7197 9.21934V7.65534H20.5087V9.21934H20.0487V5.88234H20.5087V7.27734H21.7197V5.88234H22.1797V9.21934H21.7197ZM24.2417 6.26934V9.21934H23.7817V6.26934H22.7497V5.88234H25.2877L25.2397 6.26934H24.2417ZM27.7997 9.21934L27.7027 7.50934C27.6843 7.13665 27.6779 6.76345 27.6837 6.39034H27.6687L27.1407 8.62334H26.6997L26.1477 6.39034H26.1287C26.1287 6.50134 26.1387 7.07834 26.1187 7.50934L26.0367 9.21934H25.6107L25.7997 5.88234H26.4097L26.9237 8.11034H26.9427L27.4317 5.88234H28.0467L28.2357 9.21934H27.7997ZM29.0087 9.21934V5.88234H29.4687V8.81734H30.9847L30.9317 9.21934H29.0087ZM33.7737 7.48534V7.91634L31.9277 9.06934L31.6947 8.74434L33.3897 7.70334L31.6947 6.66634L31.9077 6.33234L33.7737 7.48534ZM8.39172 13.3573C8.39172 12.2533 8.76972 11.6333 9.49572 11.6333C10.2227 11.6333 10.5997 12.2533 10.5997 13.3573C10.5997 14.4663 10.2217 15.0863 9.49572 15.0863C8.76972 15.0863 8.39172 14.4663 8.39172 13.3573ZM10.1407 13.3573C10.1407 12.3833 9.90372 11.9863 9.49672 11.9863C9.09472 11.9863 8.85272 12.3833 8.85272 13.3573C8.85272 14.3363 9.09472 14.7333 9.49672 14.7333C9.90272 14.7323 10.1407 14.3353 10.1407 13.3573ZM9.49572 13.0423C9.67972 13.0423 9.81572 13.1823 9.81572 13.3573C9.81572 13.5363 9.67972 13.6773 9.49572 13.6773C9.45386 13.6776 9.41236 13.6695 9.37369 13.6535C9.33502 13.6374 9.29996 13.6138 9.27059 13.5839C9.24121 13.5541 9.21813 13.5187 9.20269 13.4797C9.18726 13.4408 9.17979 13.3992 9.18072 13.3573C9.18072 13.1823 9.31672 13.0423 9.49572 13.0423ZM11.8727 14.6553H13.3887L13.3357 15.0283H11.3497V14.6743C12.5027 13.5313 12.8567 13.0703 12.8567 12.5673C12.8567 12.2083 12.6147 12.0053 12.2897 12.0053C12.0137 12.0053 11.8247 12.1073 11.6207 12.3633L11.3107 12.1453C11.5727 11.8213 11.9017 11.6313 12.3137 11.6313C12.9237 11.6313 13.3167 12.0193 13.3167 12.5523C13.3157 13.1343 12.8557 13.7153 11.8727 14.6553ZM19.0377 12.1413L19.2507 12.4753L17.5557 13.5123L19.2507 14.5533L19.0177 14.8783L17.1717 13.7253V13.2943L19.0377 12.1413ZM21.0267 15.0283H20.1067V11.6913H20.9547C21.5507 11.6913 22.1467 11.8803 22.1467 12.5343C22.1467 12.9603 21.8467 13.1833 21.5657 13.2463V13.2653C21.8997 13.3283 22.2927 13.5223 22.2927 14.0743C22.2907 14.8053 21.6517 15.0283 21.0267 15.0283ZM21.0367 12.0543H20.5667V13.1003H21.0757C21.4637 13.1003 21.6767 12.9403 21.6767 12.5623C21.6757 12.1943 21.4337 12.0543 21.0367 12.0543ZM21.1087 13.4683H20.5657V14.6553H21.0887C21.4137 14.6553 21.8057 14.5633 21.8057 14.0833C21.8067 13.5943 21.4917 13.4683 21.1087 13.4683ZM24.0187 15.0863C23.1997 15.0863 22.7787 14.4033 22.7787 13.3673C22.7787 12.3503 23.1997 11.6333 24.0187 11.6333C24.8377 11.6333 25.2587 12.3263 25.2587 13.3623C25.2587 14.3793 24.8367 15.0863 24.0187 15.0863ZM24.0187 12.0103C23.4757 12.0103 23.2577 12.4853 23.2577 13.3663C23.2577 14.2473 23.4907 14.7083 24.0187 14.7083C24.5617 14.7083 24.7787 14.2433 24.7787 13.3613C24.7787 12.4803 24.5607 12.0103 24.0187 12.0103ZM26.6367 15.0283H25.8567V11.6913H26.5837C27.3737 11.6913 28.1577 11.9573 28.1577 13.3433C28.1577 14.7373 27.3447 15.0283 26.6367 15.0283ZM26.6857 12.0593H26.3177V14.6653H26.6907C27.1657 14.6653 27.6687 14.4233 27.6687 13.3433C27.6687 12.2093 27.1407 12.0593 26.6857 12.0593ZM30.0597 13.7443V15.0283H29.5947V13.7493L28.4707 11.6903H28.9797L29.8327 13.3223H29.8477L30.7047 11.6903H31.1837L30.0597 13.7443ZM33.7737 13.2943V13.7253L31.9277 14.8783L31.6947 14.5533L33.3897 13.5123L31.6947 12.4753L31.9077 12.1413L33.7737 13.2943ZM8.39172 19.1663C8.39172 18.0623 8.76972 17.4423 9.49572 17.4423C10.2227 17.4423 10.5997 18.0623 10.5997 19.1663C10.5997 20.2753 10.2217 20.8953 9.49572 20.8953C8.76972 20.8953 8.39172 20.2753 8.39172 19.1663ZM10.1407 19.1663C10.1407 18.1923 9.90372 17.7953 9.49672 17.7953C9.09472 17.7953 8.85272 18.1923 8.85272 19.1663C8.85272 20.1453 9.09472 20.5423 9.49672 20.5423C9.90272 20.5413 10.1407 20.1443 10.1407 19.1663ZM9.49572 18.8513C9.67972 18.8513 9.81572 18.9913 9.81572 19.1663C9.81572 19.3453 9.67972 19.4863 9.49572 19.4863C9.45386 19.4866 9.41236 19.4785 9.37369 19.4624C9.33502 19.4464 9.29996 19.4228 9.27059 19.3929C9.24121 19.3631 9.21813 19.3277 9.20269 19.2887C9.18726 19.2498 9.17979 19.2082 9.18072 19.1663C9.18072 18.9913 9.31672 18.8513 9.49572 18.8513ZM12.2697 20.8953C11.8817 20.8953 11.4847 20.7553 11.2287 20.4453L11.5187 20.2033C11.6101 20.3084 11.7233 20.3922 11.8504 20.449C11.9775 20.5059 12.1155 20.5343 12.2547 20.5323C12.7047 20.5323 12.9767 20.2803 12.9767 19.8733C12.9767 19.4083 12.6907 19.2533 12.2987 19.2533H12.0417L12.0947 18.9093H12.2697C12.5897 18.9093 12.8897 18.7303 12.8897 18.3423C12.8897 17.9883 12.6187 17.7943 12.2747 17.7943C11.9887 17.7943 11.7907 17.8963 11.5727 18.0993L11.3307 17.8333C11.6167 17.5623 11.9457 17.4403 12.2997 17.4403C12.9387 17.4403 13.3367 17.8233 13.3367 18.2783C13.3367 18.6853 13.0367 18.9863 12.7027 19.0493V19.0683C12.9079 19.0785 13.1008 19.1691 13.2395 19.3206C13.3782 19.472 13.4516 19.6721 13.4437 19.8773C13.4417 20.4543 12.9717 20.8953 12.2697 20.8953ZM19.0377 17.9503L19.2507 18.2843L17.5557 19.3213L19.2507 20.3623L19.0177 20.6873L17.1717 19.5343V19.1033L19.0377 17.9503ZM21.7197 20.8373V19.2733H20.5087V20.8373H20.0487V17.4993H20.5087V18.8943H21.7197V17.4993H22.1797V20.8363L21.7197 20.8373ZM23.5677 17.8673V18.9573H24.7977V19.3253H23.5677V20.4733H25.0747V20.8363H23.1077V17.4993H25.0357L24.9827 17.8673H23.5677ZM27.5527 19.9993H26.2687L26.0117 20.8373H25.5517L26.6317 17.5003H27.2127L28.2927 20.8373H27.8087L27.5527 19.9993ZM26.3807 19.6263H27.4417L26.9237 17.9163H26.9047L26.3807 19.6263ZM29.5417 20.8373H28.7617V17.4993H29.4887C30.2787 17.4993 31.0627 17.7653 31.0627 19.1513C31.0627 20.5463 30.2487 20.8373 29.5417 20.8373ZM29.5897 17.8673H29.2217V20.4733H29.5947C30.0697 20.4733 30.5727 20.2313 30.5727 19.1513C30.5737 18.0183 30.0457 17.8673 29.5897 17.8673ZM32.2817 17.8673V18.9573H33.5117V19.3253H32.2817V20.4733H33.7887V20.8363H31.8217V17.4993H33.7497L33.6967 17.8673H32.2817ZM35.9997 19.3653L36.9777 20.8373H36.4307L35.5397 19.4233H35.1137V20.8373H34.6537V17.4993H35.5307C36.3637 17.4993 36.7997 17.8183 36.7997 18.4433C36.7987 18.9433 36.4497 19.2483 35.9997 19.3653ZM35.5727 17.8583H35.1127V19.0693H35.5777C36.0427 19.0693 36.3087 18.8953 36.3087 18.4443C36.3097 18.0273 36.0717 17.8583 35.5727 17.8583ZM39.5827 19.1033V19.5343L37.7367 20.6873L37.5037 20.3623L39.1987 19.3213L37.5037 18.2843L37.7167 17.9503L39.5827 19.1033ZM8.39172 24.9753C8.39172 23.8713 8.76972 23.2513 9.49572 23.2513C10.2227 23.2513 10.5997 23.8713 10.5997 24.9753C10.5997 26.0843 10.2217 26.7043 9.49572 26.7043C8.76972 26.7043 8.39172 26.0843 8.39172 24.9753ZM10.1407 24.9753C10.1407 24.0013 9.90372 23.6043 9.49672 23.6043C9.09472 23.6043 8.85272 24.0013 8.85272 24.9753C8.85272 25.9543 9.09472 26.3513 9.49672 26.3513C9.90272 26.3513 10.1407 25.9533 10.1407 24.9753ZM9.49572 24.6603C9.67972 24.6603 9.81572 24.8003 9.81572 24.9753C9.81572 25.1543 9.67972 25.2953 9.49572 25.2953C9.45386 25.2956 9.41236 25.2875 9.37369 25.2715C9.33502 25.2554 9.29996 25.2318 9.27059 25.2019C9.24121 25.1721 9.21813 25.1367 9.20269 25.0977C9.18726 25.0588 9.17979 25.0172 9.18072 24.9753C9.18072 24.8013 9.31672 24.6603 9.49572 24.6603ZM13.0787 25.8473V26.6463H12.6477V25.8473H11.2817V25.5323L12.2597 23.2503L12.6327 23.4053L11.7507 25.4933H12.6467L12.6907 24.6213H13.0777V25.4933H13.4987V25.8473H13.0787ZM19.0377 23.7593L19.2507 24.0933L17.5557 25.1303L19.2507 26.1713L19.0177 26.4963L17.1717 25.3433V24.9123L19.0377 23.7593ZM20.2617 27.1503L19.9027 26.9903L21.9707 22.7233L22.3247 22.8933L20.2617 27.1503ZM24.6237 26.6463V25.0823H23.4127V26.6463H22.9527V23.3093H23.4127V24.7043H24.6237V23.3093H25.0837V26.6463H24.6237ZM26.4727 23.6773V24.7673H27.7027V25.1353H26.4727V26.2833H27.9797V26.6463H26.0127V23.3093H27.9407L27.8877 23.6773H26.4727ZM30.4567 25.8083H29.1727L28.9157 26.6463H28.4557L29.5357 23.3093H30.1167L31.1967 26.6463H30.7127L30.4567 25.8083ZM29.2847 25.4353H30.3457L29.8277 23.7253H29.8077L29.2847 25.4353ZM32.4457 26.6463H31.6657V23.3093H32.3927C33.1827 23.3093 33.9667 23.5753 33.9667 24.9613C33.9667 26.3563 33.1537 26.6463 32.4457 26.6463ZM32.4947 23.6773H32.1267V26.2833H32.4997C32.9747 26.2833 33.4777 26.0413 33.4777 24.9613C33.4777 23.8273 32.9497 23.6773 32.4947 23.6773ZM35.1857 23.6773V24.7673H36.4157V25.1353H35.1857V26.2833H36.6927V26.6463H34.7257V23.3093H36.6537L36.6007 23.6773H35.1857ZM38.9037 25.1733L39.8827 26.6463H39.3357L38.4447 25.2323H38.0177V26.6463H37.5577V23.3093H38.4347C39.2677 23.3093 39.7037 23.6283 39.7037 24.2533C39.7037 24.7523 39.3547 25.0573 38.9037 25.1733ZM38.4777 23.6673H38.0177V24.8783H38.4827C38.9477 24.8783 39.2137 24.7043 39.2137 24.2533C39.2137 23.8373 38.9767 23.6673 38.4777 23.6673ZM42.4867 24.9123V25.3433L40.6407 26.4963L40.4077 26.1713L42.1027 25.1303L40.4077 24.0933L40.6207 23.7593L42.4867 24.9123Z" fill="white"/>
</g>
</g>
</svg>
