<svg width="213" height="213" viewBox="0 0 213 213" fill="none" xmlns="http://www.w3.org/2000/svg">
<path d="M146.467 150.235L151.666 156.909L148.75 159.18C148.05 159.726 147.386 159.994 146.76 159.985C146.14 159.982 145.618 159.709 145.195 159.166C144.915 158.806 144.765 158.426 144.747 158.025C144.728 157.623 144.833 157.237 145.062 156.867C144.599 157.054 144.158 157.094 143.739 156.984C143.318 156.887 142.947 156.632 142.628 156.222C142.166 155.629 142.009 155.011 142.157 154.368C142.304 153.737 142.734 153.143 143.447 152.587L146.467 150.235ZM148.297 154.986L146.753 156.188C145.927 156.832 145.762 157.472 146.258 158.11C146.755 158.747 147.416 158.744 148.243 158.1L149.786 156.898L148.297 154.986ZM146.018 152.06L144.314 153.388C143.481 154.037 143.325 154.696 143.846 155.365C144.367 156.034 145.044 156.044 145.877 155.395L147.581 154.067L146.018 152.06Z" fill="white"/>
<path d="M137.909 156.708L141.917 164.159L136.96 166.824L136.38 165.746L140.037 163.78L138.934 161.73L135.51 163.571L134.93 162.493L138.354 160.652L137.189 158.485L133.533 160.452L132.953 159.374L137.909 156.708Z" fill="white"/>
<path d="M126.582 162.003C127.209 161.787 127.819 161.666 128.411 161.64C129.005 161.621 129.536 161.688 130.003 161.84L129.955 163.138C129.493 163.001 129.018 162.936 128.53 162.944C128.034 162.954 127.526 163.049 127.004 163.228C126.406 163.434 126.005 163.682 125.801 163.973C125.599 164.271 125.552 164.579 125.662 164.896C125.753 165.161 125.923 165.335 126.172 165.419C126.413 165.505 126.785 165.516 127.288 165.453L128.626 165.284C130.152 165.097 131.114 165.582 131.513 166.739C131.685 167.239 131.702 167.719 131.565 168.181C131.428 168.643 131.16 169.057 130.762 169.422C130.363 169.788 129.857 170.076 129.245 170.287C128.7 170.475 128.161 170.568 127.627 170.565C127.096 170.571 126.62 170.481 126.201 170.295L126.268 169.053C127.079 169.367 127.934 169.368 128.834 169.058C129.356 168.878 129.726 168.628 129.946 168.307C130.165 167.986 130.214 167.648 130.091 167.292C129.998 167.02 129.831 166.832 129.592 166.728C129.356 166.632 129.003 166.614 128.533 166.674L127.207 166.839C126.403 166.938 125.761 166.88 125.281 166.665C124.793 166.452 124.451 166.062 124.256 165.495C124.092 165.018 124.076 164.554 124.208 164.102C124.34 163.651 124.609 163.241 125.015 162.872C125.417 162.514 125.939 162.224 126.582 162.003Z" fill="white"/>
<path d="M118.288 164.525L119.522 171.594L122.383 171.095L122.604 172.359L115.369 173.622L115.148 172.357L118.009 171.858L116.775 164.789L118.288 164.525Z" fill="white"/>
<path d="M107.241 165.987L106.669 174.428L105.137 174.324L105.375 170.804L101.029 170.51L100.791 174.03L99.2582 173.926L99.8297 165.486L101.362 165.589L101.116 169.229L105.462 169.523L105.708 165.884L107.241 165.987Z" fill="white"/>
<path d="M96.1218 165.22L90.2669 172.427L89.0484 172.107L87.4994 162.951L89.008 163.348L89.3226 165.454L93.3147 166.504L94.6132 164.823L96.1218 165.22ZM90.0995 170.659L92.4926 167.553L89.5217 166.772L90.0763 170.653L90.0995 170.659Z" fill="white"/>
<path d="M81.3148 160.346C82.1114 160.72 82.721 161.201 83.1436 161.788C83.5555 162.379 83.7758 163.039 83.8047 163.768C83.8301 164.505 83.6541 165.275 83.2768 166.079C82.8995 166.883 82.4211 167.507 81.8416 167.951C81.2621 168.394 80.6152 168.643 79.9007 168.697C79.1756 168.754 78.4148 168.596 77.6182 168.222C77.104 167.98 76.6562 167.673 76.2747 167.299C75.886 166.923 75.6129 166.516 75.4554 166.08L76.4317 165.186C76.6284 165.614 76.868 165.97 77.1506 166.252C77.4298 166.543 77.7649 166.779 78.156 166.963C78.9309 167.327 79.6316 167.368 80.2581 167.088C80.8812 166.815 81.395 166.247 81.7995 165.386C82.204 164.524 82.3139 163.762 82.1293 163.101C81.9447 162.44 81.465 161.928 80.6901 161.564C80.2991 161.38 79.9044 161.27 79.5063 161.234C79.1047 161.204 78.6764 161.251 78.2214 161.373L78.2852 160.051C78.7181 159.901 79.2054 159.851 79.747 159.902C80.2781 159.957 80.8007 160.105 81.3148 160.346Z" fill="white"/>
<path d="M75.1049 157.377L70.2659 164.317L69.006 163.438L71.1475 160.367L71.1278 160.353L65.9251 161.29L64.3895 160.219L70.0926 159.237L69.0612 153.163L70.6164 154.247L71.5877 159.694L71.6074 159.708L73.845 156.499L75.1049 157.377Z" fill="white"/>
<path d="M67.9519 152.485L59.288 155.826L58.3903 154.942L61.6 146.228L62.7114 147.323L61.9372 149.306L64.878 152.203L66.8406 151.39L67.9519 152.485ZM60.0225 154.208L63.6429 152.704L61.4544 150.548L60.0054 154.191L60.0225 154.208Z" fill="white"/>
<path d="M58.3782 142.285L52.5357 146.451L54.2218 148.816L53.1765 149.561L48.9124 143.582L49.9578 142.836L51.6439 145.201L57.4864 141.034L58.3782 142.285Z" fill="white"/>
<path d="M54.0406 136.18L46.388 139.787L45.7331 138.398L48.9244 136.893L47.0672 132.953L43.8759 134.457L43.2211 133.068L50.8737 129.461L51.5285 130.85L48.2287 132.406L50.0859 136.346L53.3857 134.791L54.0406 136.18Z" fill="white"/>
<path d="M48.2826 121.567C48.4758 122.36 48.4705 123.098 48.2665 123.782C48.0607 124.458 47.6828 125.036 47.1327 125.516C46.5749 125.997 45.8686 126.343 45.0136 126.551C44.1508 126.761 43.3649 126.78 42.6557 126.607C41.9466 126.434 41.3491 126.093 40.8632 125.586C40.3694 125.081 40.0251 124.427 39.83 123.627C39.6349 122.826 39.6403 122.088 39.8461 121.412C40.0441 120.738 40.4182 120.161 40.9682 119.681C41.5182 119.201 42.2208 118.857 43.0757 118.649C43.9385 118.439 44.7283 118.419 45.4452 118.59C46.1543 118.763 46.7558 119.103 47.2495 119.608C47.7432 120.114 48.0876 120.767 48.2826 121.567ZM47.0002 121.88C46.8165 121.126 46.4131 120.602 45.79 120.31C45.167 120.017 44.393 119.983 43.4681 120.208C42.5354 120.436 41.8637 120.822 41.4529 121.366C41.0403 121.903 40.9268 122.553 41.1124 123.314C41.2962 124.068 41.6957 124.593 42.3109 124.887C42.9262 125.182 43.7002 125.216 44.6329 124.989C45.5578 124.763 46.2295 124.377 46.648 123.831C47.0665 123.284 47.1839 122.634 47.0002 121.88Z" fill="white"/>
<path d="M46.4065 113.558L37.9565 113.97L37.9004 112.819L43.576 107.989L37.679 108.276L37.6095 106.85L46.0595 106.438L46.115 107.577L40.416 112.42L46.337 112.132L46.4065 113.558Z" fill="white"/>
<path d="M46.3454 99.1568L38.0227 97.6384L38.6818 94.026C38.8483 93.1131 39.2051 92.4504 39.752 92.0378C40.2989 91.6253 40.9816 91.4937 41.8001 91.643C42.6186 91.7924 43.2148 92.1573 43.5887 92.7378C43.9547 93.3169 44.0544 94.0629 43.8879 94.9758L43.5045 97.0772L46.621 97.6458L46.3454 99.1568ZM42.3122 96.8596L42.6525 94.9944C42.8506 93.9083 42.4775 93.2792 41.5331 93.1069C40.5965 92.936 40.0292 93.3936 39.831 94.4797L39.4907 96.3449L42.3122 96.8596Z" fill="white"/>
<path d="M48.2222 89.7111L40.2214 86.9618L40.7205 85.5092L47.4844 87.8334L48.8025 83.9976L50.0395 84.4226L48.2222 89.7111Z" fill="white"/>
<path d="M50.4918 82.6642L44.8392 75.2971L45.4338 74.1862L54.699 74.8033L53.9629 76.1787L51.842 75.9963L49.8941 79.6358L51.2279 81.2888L50.4918 82.6642ZM46.5986 75.5446L49.0641 78.5927L50.5136 75.8842L46.6099 75.5235L46.5986 75.5446Z" fill="white"/>
<path d="M57.419 70.8032L51.7608 66.3896L49.9747 68.6793L48.9623 67.8896L53.4792 62.099L54.4916 62.8887L52.7055 65.1784L58.3637 69.5921L57.419 70.8032Z" fill="white"/>
<path d="M62.0835 65.0415L56.2425 58.9214L60.2444 55.102L61.0895 55.9875L58.1987 58.7464L59.8475 60.4739L62.5559 57.889L63.401 58.7744L60.6925 61.3594L63.1946 63.981L62.0835 65.0415Z" fill="white"/>
<path d="M71.467 57.0982C70.7884 57.5513 70.093 57.7993 69.3808 57.842C68.6752 57.8803 68.0028 57.7233 67.3635 57.371C66.7198 57.0121 66.1535 56.4667 65.6648 55.7349C65.1717 54.9965 64.8848 54.2645 64.8044 53.539C64.7239 52.8135 64.8388 52.1356 65.1489 51.5052C65.4546 50.8682 65.95 50.3208 66.6353 49.8632C67.3205 49.4056 68.0159 49.1576 68.7214 49.1193C69.4226 49.0744 70.0928 49.2281 70.7321 49.5803C71.3714 49.9326 71.9354 50.4747 72.4241 51.2065C72.9173 51.9449 73.2063 52.6802 73.2912 53.4124C73.3717 54.1379 73.259 54.8191 72.9534 55.4562C72.6477 56.0932 72.1522 56.6405 71.467 57.0982ZM70.7339 56.0004C71.3792 55.5695 71.7327 55.0112 71.7942 54.3255C71.8558 53.6398 71.6222 52.9012 71.0935 52.1095C70.5604 51.3111 69.9676 50.8124 69.3151 50.6132C68.6692 50.4096 68.0203 50.5255 67.3683 50.9609C66.723 51.3919 66.3674 51.9469 66.3013 52.6259C66.2353 53.3049 66.4689 54.0436 67.002 54.8419C67.5308 55.6336 68.1236 56.1323 68.7805 56.3382C69.4374 56.544 70.0886 56.4314 70.7339 56.0004Z" fill="white"/>
<path d="M78.4694 52.5003L75.2118 44.6927L78.6006 43.2787C79.4571 42.9214 80.2041 42.8524 80.8418 43.0718C81.4763 43.2838 81.9476 43.759 82.2557 44.4973C82.499 45.0805 82.5495 45.6273 82.4069 46.1375C82.2613 46.6403 81.932 47.0768 81.419 47.4469C81.8448 47.4079 82.2735 47.5628 82.705 47.9115L85.0146 49.7695L83.453 50.421L81.0622 48.4929C80.8277 48.3047 80.5996 48.2048 80.3781 48.1933C80.1639 48.1786 79.9166 48.2298 79.636 48.3469L78.5839 48.7858L79.887 51.9089L78.4694 52.5003ZM78.1449 47.7337L79.8726 47.0129C80.9062 46.5816 81.2475 45.9451 80.8963 45.1035C80.5482 44.2692 79.8573 44.0677 78.8237 44.4989L77.096 45.2198L78.1449 47.7337Z" fill="white"/>
<path d="M88.3622 48.3589L86.7243 40.059L87.984 39.8104L91.9983 44.6568L93.8587 38.651L95.0948 38.407L96.7328 46.707L95.3671 46.9765L94.2635 41.3843L92.7404 46.1861L91.8574 46.3603L88.6289 42.5208L89.7279 48.0894L88.3622 48.3589Z" fill="white"/>
<path d="M105.14 43.3659L105.181 42.1666L108.755 42.2914L108.713 43.4907L105.14 43.3659Z" fill="white"/>
<path d="M150.389 152.714L149.607 151.804L152.32 149.474L153.102 150.384L150.389 152.714Z" fill="white"/>
<path d="M115.471 46.481L117.654 38.3075L118.895 38.6388L120.366 44.7575L124.68 40.1839L125.897 40.509L123.714 48.6825L122.369 48.3233L123.84 42.8164L120.359 46.4573L119.489 46.2251L118.281 41.3564L116.816 46.8402L115.471 46.481Z" fill="white"/>
<path d="M127.326 49.6607L134.52 43.7891L135.648 44.35L135.31 53.6296L133.913 52.9352L134.032 50.8097L130.335 48.9722L128.723 50.3551L127.326 49.6607ZM134.325 45.5552L131.353 48.1112L134.104 49.4787L134.347 45.5659L134.325 45.5552Z" fill="white"/>
<path d="M140.353 57.0282C139.819 56.634 139.373 56.2007 139.016 55.7283C138.663 55.2494 138.417 54.7745 138.277 54.3036L139.374 53.6062C139.523 54.0642 139.739 54.4922 140.022 54.8899C140.312 55.2925 140.679 55.6576 141.123 55.9853C141.631 56.3606 142.063 56.55 142.418 56.5536C142.778 56.5508 143.058 56.4142 143.258 56.1438C143.424 55.9185 143.471 55.6797 143.398 55.4275C143.332 55.18 143.131 54.8672 142.793 54.489L141.895 53.4832C140.875 52.3328 140.728 51.2651 141.455 50.2802C141.768 49.8553 142.154 49.5683 142.612 49.4191C143.07 49.2699 143.563 49.2556 144.09 49.3763C144.618 49.4969 145.142 49.7496 145.663 50.1343C146.127 50.4763 146.509 50.8677 146.81 51.3086C147.116 51.743 147.312 52.1855 147.397 52.636L146.336 53.2852C146.134 52.4403 145.65 51.7353 144.884 51.1701C144.44 50.8424 144.024 50.6792 143.635 50.6807C143.246 50.6821 142.94 50.8341 142.717 51.1367C142.546 51.3684 142.485 51.6121 142.535 51.8677C142.59 52.1169 142.776 52.4179 143.092 52.7706L143.981 53.7693C144.518 54.3747 144.835 54.9362 144.93 55.4539C145.032 55.9763 144.904 56.4789 144.548 56.9617C144.249 57.3673 143.876 57.6438 143.429 57.7913C142.982 57.9388 142.492 57.9499 141.958 57.8244C141.435 57.6973 140.9 57.4319 140.353 57.0282Z" fill="white"/>
<path d="M147.013 62.2808L152.127 57.2468L150.09 55.1772L151.005 54.2765L156.157 59.5103L155.242 60.411L153.205 58.3415L148.091 63.3755L147.013 62.2808Z" fill="white"/>
<path d="M152.389 67.8733L159.296 62.9878L162.546 67.5824L161.546 68.2893L159.149 64.8996L157.248 66.244L159.493 69.4182L158.494 70.125L156.249 66.9509L154.24 68.3715L156.638 71.7612L155.639 72.468L152.389 67.8733Z" fill="white"/>
<path d="M157.92 75.7485L165.559 72.1128L167.137 75.4284C167.536 76.2663 167.642 77.0091 167.454 77.6567C167.273 78.3009 166.821 78.7949 166.099 79.1387C165.528 79.4103 164.985 79.4874 164.468 79.37C163.959 79.2492 163.507 78.9416 163.112 78.4473C163.172 78.8707 163.038 79.3065 162.711 79.7546L160.968 82.1522L160.241 80.6244L162.05 78.1422C162.226 77.8987 162.315 77.666 162.316 77.4442C162.32 77.2296 162.257 76.985 162.126 76.7105L161.636 75.6812L158.58 77.1355L157.92 75.7485ZM162.665 75.1912L163.47 76.8816C163.951 77.8929 164.604 78.2025 165.427 77.8106C166.243 77.4221 166.411 76.7222 165.929 75.7109L165.125 74.0206L162.665 75.1912Z" fill="white"/>
<path d="M164.296 92.9458C164.119 92.0837 164.14 91.3078 164.357 90.618C164.585 89.9344 164.982 89.363 165.55 88.9037C166.125 88.4428 166.847 88.1232 167.717 87.9449C168.587 87.7665 169.373 87.7769 170.075 87.9759C170.778 88.1749 171.364 88.5447 171.834 89.0853C172.314 89.6322 172.642 90.3366 172.818 91.1987C172.933 91.7551 172.954 92.2979 172.883 92.827C172.813 93.3639 172.651 93.8259 172.395 94.2131L171.095 93.9652C171.32 93.5515 171.462 93.1468 171.52 92.7511C171.585 92.3539 171.575 91.9436 171.488 91.5204C171.316 90.6819 170.93 90.0954 170.331 89.7609C169.74 89.4249 168.977 89.3524 168.045 89.5436C167.112 89.7348 166.436 90.102 166.017 90.6453C165.597 91.1886 165.474 91.8796 165.645 92.7181C165.732 93.1413 165.88 93.5234 166.089 93.8645C166.305 94.2039 166.599 94.5194 166.969 94.811L165.871 95.5506C165.492 95.2935 165.16 94.9327 164.877 94.468C164.604 94.0097 164.41 93.5022 164.296 92.9458Z" fill="white"/>
<path d="M165.676 103.486C165.666 102.67 165.837 101.951 166.189 101.331C166.542 100.719 167.04 100.24 167.684 99.8965C168.336 99.5524 169.102 99.375 169.982 99.3641C170.869 99.3532 171.639 99.5117 172.292 99.8397C172.944 100.168 173.449 100.633 173.809 101.237C174.176 101.841 174.365 102.554 174.375 103.378C174.386 104.202 174.214 104.92 173.862 105.533C173.517 106.145 173.023 106.623 172.379 106.967C171.736 107.311 170.974 107.488 170.094 107.499C169.206 107.51 168.432 107.352 167.772 107.024C167.12 106.696 166.61 106.23 166.242 105.627C165.875 105.023 165.686 104.309 165.676 103.486ZM166.996 103.469C167.005 104.245 167.281 104.846 167.822 105.271C168.363 105.697 169.11 105.903 170.062 105.892C171.022 105.88 171.763 105.655 172.286 105.216C172.809 104.786 173.065 104.178 173.055 103.395C173.046 102.619 172.774 102.018 172.241 101.592C171.708 101.167 170.961 100.96 170.001 100.972C169.049 100.984 168.308 101.209 167.777 101.647C167.247 102.086 166.986 102.693 166.996 103.469Z" fill="white"/>
<path d="M165.819 111.465L174.136 113.014L173.561 116.105C173.301 117.497 172.744 118.504 171.887 119.126C171.029 119.755 169.932 119.946 168.595 119.697C167.266 119.449 166.311 118.877 165.729 117.979C165.146 117.089 164.984 115.948 165.244 114.556L165.819 111.465ZM166.788 113.208L166.512 114.695C166.154 116.614 166.947 117.754 168.889 118.116C170.824 118.476 171.97 117.697 172.328 115.778L172.604 114.291L166.788 113.208Z" fill="white"/>
<path d="M163.398 123.325L171.303 126.339L169.298 131.598L168.154 131.162L169.634 127.282L167.458 126.453L166.073 130.085L164.929 129.649L166.315 126.017L164.016 125.14L162.537 129.019L161.393 128.583L163.398 123.325Z" fill="white"/>
<path d="M159.897 132.356L167.167 136.681L165.29 139.837C164.815 140.635 164.257 141.135 163.614 141.339C162.978 141.548 162.316 141.447 161.629 141.038C161.086 140.715 160.719 140.306 160.529 139.811C160.347 139.321 160.351 138.774 160.542 138.171C160.223 138.456 159.787 138.588 159.232 138.565L156.271 138.45L157.136 136.996L160.205 137.119C160.505 137.13 160.748 137.074 160.933 136.951C161.113 136.836 161.281 136.647 161.437 136.386L162.02 135.406L159.111 133.676L159.897 132.356ZM162.999 135.989L162.042 137.598C161.469 138.56 161.575 139.275 162.359 139.741C163.136 140.203 163.81 139.953 164.383 138.99L165.34 137.382L162.999 135.989Z" fill="white"/>
<path d="M152.186 143.78C152.618 143.276 153.083 142.863 153.58 142.541C154.084 142.224 154.575 142.013 155.055 141.908L155.671 143.052C155.203 143.168 154.76 143.352 154.343 143.605C153.921 143.865 153.53 144.204 153.17 144.623C152.759 145.103 152.539 145.52 152.509 145.874C152.486 146.234 152.602 146.522 152.857 146.741C153.07 146.923 153.304 146.987 153.561 146.934C153.813 146.886 154.14 146.708 154.541 146.399L155.61 145.576C156.831 144.642 157.907 144.573 158.836 145.37C159.237 145.713 159.495 146.119 159.611 146.587C159.726 147.054 159.705 147.547 159.546 148.064C159.387 148.581 159.097 149.086 158.675 149.578C158.301 150.015 157.882 150.368 157.421 150.636C156.965 150.91 156.51 151.072 156.054 151.124L155.484 150.02C156.341 149.88 157.08 149.448 157.699 148.725C158.058 148.306 158.251 147.903 158.278 147.515C158.305 147.127 158.176 146.811 157.89 146.566C157.672 146.379 157.433 146.301 157.174 146.332C156.922 146.368 156.608 146.532 156.233 146.821L155.173 147.635C154.53 148.127 153.947 148.402 153.423 148.459C152.895 148.523 152.403 148.359 151.947 147.969C151.565 147.641 151.316 147.248 151.201 146.792C151.087 146.336 151.112 145.846 151.275 145.323C151.44 144.811 151.744 144.296 152.186 143.78Z" fill="white"/>
</svg>
