<svg width="85" height="85" viewBox="0 0 85 85" fill="none" xmlns="http://www.w3.org/2000/svg">
<rect width="85" height="85" rx="8" fill="white"/>
<g clip-path="url(#clip0_49_9338)">
<path d="M19.7812 71V50.3828H63.8594V71H19.7812Z" fill="#676E87"/>
<path d="M60.5781 50.3828H63.8594V71H60.5781V50.3828Z" fill="#595F74"/>
<path d="M13.8203 46.6094H68.1797C68.1797 47.6435 67.7689 48.6353 67.0376 49.3665C66.3064 50.0978 65.3146 50.5086 64.2805 50.5086H17.7195C16.6854 50.5086 15.6936 50.0978 14.9624 49.3665C14.2311 48.6353 13.8203 47.6435 13.8203 46.6094Z" fill="#595F74"/>
<path d="M64.8984 46.6094C64.8984 47.6435 64.4876 48.6353 63.7564 49.3665C63.0251 50.0978 62.0333 50.5086 60.9992 50.5086H64.2805C65.3146 50.5086 66.3064 50.0978 67.0376 49.3665C67.7689 48.6353 68.1797 47.6435 68.1797 46.6094H64.8984Z" fill="#4A4F60"/>
<path d="M41.4998 46.6093C41.2716 46.6094 41.0459 46.5618 40.8371 46.4697C40.6284 46.3776 40.4411 46.2429 40.2873 46.0743C40.1335 45.9057 40.0166 45.7069 39.944 45.4905C39.8714 45.2741 39.8448 45.045 39.8658 44.8178L40.4061 38.9421C40.4116 38.8787 40.4192 38.8153 40.428 38.7518C40.6916 36.8367 42.1419 35.2978 44.0188 34.8362L52.7688 32.6826L61.5188 34.8362C63.3956 35.2978 64.847 36.8367 65.1095 38.7518C65.1183 38.8153 65.1259 38.8787 65.1314 38.9421L65.8675 44.7631C65.8967 44.9946 65.8763 45.2297 65.8074 45.4526C65.7386 45.6756 65.623 45.8813 65.4684 46.0561C65.3137 46.2308 65.1236 46.3705 64.9106 46.466C64.6976 46.5614 64.4668 46.6102 64.2334 46.6093H41.4998Z" fill="#FF6666"/>
<path d="M65.861 44.7602L65.1249 38.9392C65.1194 38.8758 65.1117 38.8123 65.103 38.7489C64.8405 36.8338 63.3891 35.2948 61.5122 34.8333L52.7622 32.6797L51.1216 33.0844L58.231 34.8344C60.1078 35.2959 61.5592 36.8348 61.8217 38.75C61.8305 38.8134 61.8381 38.8769 61.8436 38.9403L62.5797 44.7613C62.6092 44.9924 62.5892 45.2271 62.5209 45.4499C62.4526 45.6727 62.3376 45.8784 62.1836 46.0532C62.0297 46.2281 61.8402 46.3682 61.6279 46.4641C61.4155 46.5601 61.1852 46.6097 60.9522 46.6097H64.2335C64.4666 46.6097 64.697 46.5601 64.9094 46.4641C65.1218 46.3681 65.3114 46.2279 65.4654 46.0529C65.6193 45.8779 65.7343 45.6721 65.8025 45.4492C65.8707 45.2263 65.8906 44.9914 65.861 44.7602Z" fill="#FF4E4E"/>
<path d="M50.3111 30.75H55.2188V33.9383C55.2188 34.2551 55.1563 34.5689 55.0351 34.8616C54.9138 35.1544 54.7361 35.4203 54.5121 35.6444C54.288 35.8684 54.022 36.0462 53.7293 36.1674C53.4365 36.2887 53.1228 36.3511 52.8059 36.3511H52.7239C52.4071 36.3511 52.0933 36.2887 51.8006 36.1674C51.5078 36.0462 51.2418 35.8684 51.0178 35.6444C50.7937 35.4203 50.616 35.1544 50.4948 34.8616C50.3735 34.5689 50.3111 34.2551 50.3111 33.9383V30.75Z" fill="#FFCD85"/>
<path d="M53.296 30.75V33.9383C53.296 34.4159 53.1542 34.8828 52.8886 35.2799C52.623 35.6769 52.2456 35.9861 51.8041 36.1684C52.0956 36.2896 52.4082 36.3517 52.7239 36.3511H52.8125C53.4507 36.3494 54.0623 36.0948 54.5132 35.6432C54.9642 35.1916 55.2179 34.5798 55.2188 33.9416V30.75H53.296Z" fill="#FFC166"/>
<path d="M55.8914 21.9366L47.5538 23.8922V18.0548C47.5538 16.9753 48.4878 15.8203 49.6396 15.8203H57.636C57.7263 15.8203 57.8129 15.8561 57.8769 15.9199C57.9408 15.9836 57.9769 16.0702 57.9772 16.1605V19.9809C57.9772 21.0605 57.0431 21.9366 55.8914 21.9366Z" fill="#676E87"/>
<path d="M57.636 15.8203H54.3547C54.445 15.8203 54.5317 15.8561 54.5956 15.9199C54.6596 15.9836 54.6957 16.0702 54.696 16.1605V19.9809C54.696 21.0605 53.7619 21.9366 52.6102 21.9366L47.5538 23.1222V23.8878L55.8914 21.9322C57.0431 21.9322 57.9772 21.0572 57.9772 19.9766V16.1605C57.9769 16.0702 57.9408 15.9836 57.8769 15.9199C57.8129 15.8561 57.7263 15.8203 57.636 15.8203Z" fill="#595F74"/>
<path d="M48.6475 21.9365H56.8835C57.1735 21.9365 57.4517 22.0518 57.6569 22.2569C57.862 22.462 57.9772 22.7402 57.9772 23.0303V27.6076C57.9772 28.8883 57.4684 30.1166 56.5629 31.0222C55.6573 31.9278 54.429 32.4365 53.1483 32.4365H52.3827C51.102 32.4365 49.8737 31.9278 48.9681 31.0222C48.0625 30.1166 47.5538 28.8883 47.5538 27.6076V23.0303C47.5538 22.7402 47.669 22.462 47.8741 22.2569C48.0792 22.0518 48.3574 21.9365 48.6475 21.9365Z" fill="#FFCD85"/>
<path d="M56.8834 21.9365H53.6022C53.8922 21.9365 54.1704 22.0518 54.3756 22.2569C54.5807 22.462 54.6959 22.7402 54.6959 23.0303V27.6076C54.6956 28.6692 54.3457 29.7011 53.7002 30.5439C53.0548 31.3867 52.1496 31.9934 51.1248 32.2703C51.535 32.3803 51.9579 32.4362 52.3826 32.4365H53.1483C54.429 32.4365 55.6572 31.9278 56.5628 31.0222C57.4684 30.1166 57.9772 28.8883 57.9772 27.6076V23.0303C57.9772 22.7402 57.8619 22.462 57.6568 22.2569C57.4517 22.0518 57.1735 21.9365 56.8834 21.9365Z" fill="#FFC166"/>
<path d="M52.8125 42.6602H57.7125V46.6097H52.8125C52.2904 46.6097 51.7896 46.4023 51.4204 46.0331C51.0512 45.6638 50.8438 45.1631 50.8438 44.6409C50.8438 44.1188 51.0512 43.618 51.4204 43.2488C51.7896 42.8796 52.2904 42.6722 52.8125 42.6722V42.6602Z" fill="#FFCD85"/>
<path d="M57.7124 42.6602H61.0593C61.2768 42.6602 61.4855 42.7466 61.6393 42.9004C61.7932 43.0543 61.8796 43.2629 61.8796 43.4805C61.8796 43.698 61.7932 43.9067 61.6393 44.0605C61.4855 44.2144 61.2768 44.3008 61.0593 44.3008H57.7124V42.6602Z" fill="#FF4E4E"/>
<path d="M61.2476 44.3008C61.0662 44.3006 60.89 44.2403 60.7465 44.1292C60.603 44.0182 60.5004 43.8628 60.4547 43.6872L59.6125 40.3556C59.5851 40.2514 59.5784 40.1428 59.5929 40.0361C59.6075 39.9293 59.6429 39.8264 59.6972 39.7333C59.7515 39.6403 59.8236 39.5588 59.9093 39.4936C59.9951 39.4283 60.0929 39.3806 60.1971 39.3532C60.3013 39.3258 60.4099 39.3191 60.5167 39.3337C60.6234 39.3482 60.7263 39.3836 60.8194 39.4379C60.9125 39.4922 60.9939 39.5643 61.0592 39.6501C61.1244 39.7358 61.1721 39.8336 61.1995 39.9378L62.0417 43.2694C62.0966 43.4798 62.0657 43.7035 61.9558 43.8912C61.8459 44.0788 61.6659 44.2152 61.4555 44.2702C61.3877 44.2889 61.3179 44.2992 61.2476 44.3008Z" fill="#FF4E4E"/>
<path d="M50.8843 46.6058H47.626V42.6562H50.8843C51.4064 42.6562 51.9072 42.8637 52.2764 43.2329C52.6456 43.6021 52.853 44.1029 52.853 44.625C52.8546 44.8845 52.8048 45.1419 52.7066 45.3821C52.6084 45.6224 52.4636 45.8408 52.2806 46.0249C52.0977 46.209 51.8801 46.3551 51.6405 46.4548C51.4008 46.5545 51.1438 46.6058 50.8843 46.6058Z" fill="#FFCD85"/>
<path d="M50.8833 42.6602H49.2427C49.766 42.6602 50.2679 42.868 50.6379 43.2381C51.0079 43.6081 51.2158 44.11 51.2158 44.6333C51.2158 45.1566 51.0079 45.6585 50.6379 46.0285C50.2679 46.3985 49.766 46.6064 49.2427 46.6064H50.8833C51.4066 46.6064 51.9085 46.3985 52.2785 46.0285C52.6485 45.6585 52.8564 45.1566 52.8564 44.6333C52.8564 44.11 52.6485 43.6081 52.2785 43.2381C51.9085 42.868 51.4066 42.6602 50.8833 42.6602Z" fill="#FFC166"/>
<path d="M47.6259 44.3015H44.2812C44.0637 44.3015 43.855 44.2151 43.7012 44.0613C43.5474 43.9074 43.4609 43.6988 43.4609 43.4812C43.4609 43.2636 43.5474 43.055 43.7012 42.9012C43.855 42.7473 44.0637 42.6609 44.2812 42.6609H47.6281L47.6259 44.3015Z" fill="#FF4E4E"/>
<path d="M44.5249 44.302C44.4433 44.302 44.3621 44.2895 44.2843 44.2649C44.1811 44.2337 44.085 44.1825 44.0016 44.1141C43.9182 44.0458 43.8491 43.9616 43.7983 43.8665C43.7475 43.7714 43.716 43.6672 43.7055 43.5599C43.6951 43.4526 43.7059 43.3442 43.7374 43.2411L44.7984 39.7061C44.8629 39.499 45.0069 39.3259 45.1987 39.2247C45.3906 39.1234 45.6148 39.1023 45.8222 39.166C46.0295 39.2296 46.2033 39.3728 46.3054 39.5642C46.4074 39.7556 46.4295 39.9797 46.3668 40.1874L45.3059 43.7213C45.2546 43.8887 45.1512 44.0353 45.0107 44.1398C44.8702 44.2442 44.7 44.3011 44.5249 44.302Z" fill="#FF4E4E"/>
<path d="M37.978 55.413H21.9556C20.6847 55.413 19.6588 54.2339 19.6588 52.7792V50.6475C19.6588 47.2842 21.7489 44.3956 24.6375 43.7656L25.8997 43.4911L29.9728 34.8767L33.8513 43.4484L35.3016 43.7656C38.1902 44.3956 40.2803 47.2842 40.2803 50.6475V52.7792C40.2803 54.2339 39.25 55.413 37.978 55.413Z" fill="#66C1FF"/>
<path d="M35.3016 43.7656L33.8458 43.4484L29.9674 34.8767L28.2906 38.4226L30.5646 43.4539L32.0203 43.7656C34.9089 44.3956 36.9991 47.2842 36.9991 50.6475V52.7792C36.9991 54.2339 35.9688 55.413 34.7022 55.413H37.9835C39.2555 55.413 40.2803 54.2339 40.2803 52.7792V50.6475C40.2803 47.2842 38.1902 44.3956 35.3016 43.7656Z" fill="#4EB7FF"/>
<path d="M25.8942 43.4911C25.962 43.5917 27.5108 45.8033 30.1763 45.6316C32.4622 45.4839 33.697 43.7033 33.8392 43.4911C33.8502 43.4801 33.8611 43.4659 33.8731 43.455L33.8458 43.4484L29.9674 34.8767L25.8942 43.4911Z" fill="#FFCD85"/>
<path d="M33.8458 43.4484L29.9674 34.8767L29.1285 36.6497C29.1285 36.6497 30.8074 40.3684 31.6813 42.3241C31.8582 42.7165 31.8985 43.1569 31.7956 43.5749C31.6926 43.9929 31.4525 44.3643 31.1136 44.6297C30.517 45.102 29.8148 45.4229 29.0672 45.5648C29.4327 45.6332 29.8052 45.6556 30.1763 45.6316C32.4622 45.4839 33.697 43.7033 33.8392 43.4911C33.8502 43.4801 33.8611 43.4659 33.8731 43.455L33.8458 43.4484Z" fill="#FFC166"/>
<path d="M25.7169 31.8096H34.2186C34.5244 31.8096 34.8176 31.931 35.0338 32.1472C35.25 32.3634 35.3714 32.6566 35.3714 32.9624V37.1263C35.3714 37.8357 35.2317 38.5382 34.9602 39.1936C34.6888 39.849 34.2909 40.4445 33.7892 40.9461C33.2876 41.4477 32.6921 41.8456 32.0367 42.1171C31.3813 42.3886 30.6788 42.5283 29.9694 42.5283C28.5367 42.5283 27.1627 41.9592 26.1496 40.9461C25.1365 39.933 24.5674 38.559 24.5674 37.1263V32.9624C24.5674 32.811 24.5972 32.6611 24.6551 32.5212C24.7131 32.3814 24.798 32.2543 24.905 32.1472C25.0121 32.0402 25.1392 31.9553 25.279 31.8973C25.4189 31.8394 25.5688 31.8096 25.7202 31.8096H25.7169Z" fill="#FFCD85"/>
<path d="M34.2185 31.8096H31.1845C31.4902 31.8096 31.7834 31.931 31.9996 32.1472C32.2158 32.3634 32.3373 32.6566 32.3373 32.9624V37.1263C32.3368 38.2945 31.958 39.4311 31.2574 40.3659C30.5568 41.3007 29.5723 41.9834 28.4512 42.3118C28.9436 42.4561 29.454 42.5298 29.9671 42.5305C31.3998 42.5305 32.7738 41.9614 33.7869 40.9483C34.8 39.9352 35.3691 38.5612 35.3691 37.1285V32.9624C35.3691 32.657 35.248 32.3641 35.0323 32.148C34.8165 31.9319 34.5239 31.8101 34.2185 31.8096Z" fill="#FFC166"/>
<path d="M24.5654 34.045V30.4882C24.5654 29.2555 25.4459 28.2471 26.5232 28.2471H35.3695V34.0439C35.3695 36.3999 33.6993 38.3096 31.6398 38.3096H28.294C26.2345 38.3107 24.5654 36.401 24.5654 34.045Z" fill="#676E87"/>
<path d="M32.4489 28.2471V34.0439C32.4489 36.3999 30.7788 38.3096 28.7192 38.3096H31.6396C33.6991 38.3096 35.3692 36.3999 35.3692 34.0439V28.2471H32.4489Z" fill="#595F74"/>
<path d="M17.1016 71.0004V57.6446C17.1016 56.6826 17.4836 55.7599 18.1638 55.0796C18.8439 54.3993 19.7664 54.0169 20.7284 54.0166H39.2052C39.6815 54.0166 40.1532 54.1105 40.5934 54.2928C41.0335 54.4751 41.4333 54.7424 41.7701 55.0793C42.1069 55.4162 42.3741 55.8161 42.5563 56.2563C42.7385 56.6964 42.8322 57.1682 42.832 57.6446V71.0004H17.1016Z" fill="#FFC97A"/>
<path d="M39.2051 54.0166H35.9238C36.4002 54.0166 36.8719 54.1105 37.312 54.2928C37.7521 54.4751 38.152 54.7424 38.4888 55.0793C38.8256 55.4162 39.0927 55.8161 39.2749 56.2563C39.4571 56.6964 39.5508 57.1682 39.5507 57.6446V71.0004H42.832V57.6446C42.8321 57.1682 42.7384 56.6964 42.5562 56.2563C42.374 55.8161 42.1069 55.4162 41.7701 55.0793C41.4333 54.7424 41.0334 54.4751 40.5933 54.2928C40.1532 54.1105 39.6815 54.0166 39.2051 54.0166Z" fill="#FFC166"/>
</g>
<defs>
<clipPath id="clip0_49_9338">
<rect width="56" height="56" fill="white" transform="translate(13 15)"/>
</clipPath>
</defs>
</svg>
