<svg width="25" height="24" viewBox="0 0 25 24" fill="none" xmlns="http://www.w3.org/2000/svg">
<rect width="25" height="24" fill="#1E1E1E"/>
<g id="Desktop - 1" clip-path="url(#clip0_49_9160)">
<rect width="1440" height="4087" transform="translate(-758 -3385)" fill="#F8FAFB"/>
<g id="Frame 626105">
<rect width="1444" height="553" transform="translate(-757 -157)" fill="white"/>
<g id="Frame 626104">
<g id="Frame 626102">
<g id="Content">
<g id="_FAQ item">
<g id="Next" clip-path="url(#clip1_49_9160)">
<path id="Vector" d="M12.5 0C5.8821 0 0.5 5.38548 0.5 12.0034C0.5 18.6213 5.8821 24.0034 12.5 24.0034C19.1179 24.0034 24.5 18.6213 24.5 12.0034C24.5 5.38548 19.1179 0 12.5 0ZM12.5 22.5042C6.70934 22.5042 1.99916 17.794 1.99916 12.0034C1.99916 6.21272 6.70934 1.50253 12.5 1.50253C18.2907 1.50253 23.0008 6.21272 23.0008 12.0034C23.0008 17.794 18.2907 22.5042 12.5 22.5042Z" fill="#1B2124"/>
<path id="Vector_2" d="M13.1716 7.17399C12.9396 6.942 12.5663 6.942 12.3343 7.17399C12.1023 7.40597 12.1023 7.77928 12.3343 8.01127L15.7314 11.4084H7.09196C6.76398 11.4084 6.5 11.6724 6.5 12.0003C6.5 12.3283 6.76398 12.5923 7.09196 12.5923H15.7314L12.3343 15.9894C12.1023 16.2214 12.1023 16.5947 12.3343 16.8267C12.4489 16.9413 12.6009 17 12.7529 17C12.9049 17 13.0569 16.9413 13.1716 16.8267L17.5793 12.419C17.8112 12.187 17.8112 11.8137 17.5793 11.5817L13.1716 7.17399Z" fill="#1B2124"/>
</g>
</g>
</g>
</g>
</g>
</g>
</g>
<defs>
<clipPath id="clip0_49_9160">
<rect width="1440" height="4087" fill="white" transform="translate(-758 -3385)"/>
</clipPath>
<clipPath id="clip1_49_9160">
<rect width="24" height="24" fill="white" transform="translate(0.5)"/>
</clipPath>
</defs>
</svg>
