<svg width="85" height="85" viewBox="0 0 85 85" fill="none" xmlns="http://www.w3.org/2000/svg">
<rect width="85" height="85" rx="8" fill="white"/>
<g clip-path="url(#clip0_49_9377)">
<path d="M69 43C69 43.4813 69 43.9187 68.9562 44.3562C68.2563 59.1875 56.0062 71 41 71C39.9937 71 38.9437 70.9562 37.9812 70.825C23.9375 69.3375 13 57.4375 13 43C13 27.5563 25.5563 15 41 15C56.4437 15 69 27.5563 69 43Z" fill="#F5D09B"/>
<path opacity="0.2" d="M68.9562 44.3566C68.2562 59.1879 56.0062 71.0004 41 71.0004C39.9937 71.0004 38.9437 70.9566 37.9812 70.8254L30.4563 63.3004L39.9937 46.2379L30.85 37.1379L29.1438 31.7566L28.75 30.5316L29.5375 30.7504L31.2875 26.5941L37.5 32.8504L39.6875 33.3754L41 35.2129L40.9563 29.9191L35.6625 24.6254L40.9563 24.2754H46.3375L54.5187 32.5004L56.0063 31.4066L68.9562 44.3566Z" fill="url(#paint0_linear_49_9377)"/>
<path d="M38.6376 41.8629V40.0254C38.6376 36.7004 35.9688 34.0316 32.6438 34.0316H31.3751V36.8754C31.3751 37.0504 31.2001 37.1816 31.0688 37.1816C31.0251 37.1816 30.9376 37.1816 30.8501 37.0941L25.9938 32.2816C25.8626 32.1504 25.8188 32.0191 25.8188 31.8441C25.8188 31.6691 25.8626 31.5379 25.9938 31.4066L30.8501 26.5504C30.9376 26.4629 31.0251 26.4629 31.0688 26.4629C31.2438 26.4629 31.3751 26.5941 31.3751 26.7691V29.3066H32.6438C34.6126 29.3066 36.5376 29.8316 38.2001 30.8379L38.6376 31.1004V24.8004H35.9251C35.7501 24.8004 35.6626 24.6691 35.6188 24.6254C35.6188 24.5816 35.5313 24.4066 35.7063 24.2754L40.5626 19.4191C40.6938 19.2879 40.8251 19.2441 41.0001 19.2441C41.1751 19.2441 41.3063 19.2879 41.4376 19.4191L46.2938 24.2754C46.4251 24.4066 46.3813 24.5816 46.3813 24.6254C46.3813 24.6691 46.2938 24.8004 46.0751 24.8004H43.3626V31.1441L43.8001 30.8816C45.4626 29.8754 47.3876 29.3504 49.3563 29.3504H50.6251V26.8129C50.6251 26.6379 50.8001 26.5066 50.9313 26.5066C50.9751 26.5066 51.0626 26.5066 51.1501 26.5941L56.0063 31.4504C56.1376 31.5816 56.1813 31.7129 56.1813 31.8879C56.1813 32.0629 56.1376 32.1941 56.0063 32.3254L51.1501 37.1379C51.0626 37.2254 50.9751 37.2254 50.9313 37.2254C50.7563 37.2254 50.6251 37.0941 50.6251 36.9191V34.0754H49.3563C46.0313 34.0754 43.3626 36.7441 43.3626 40.0691V41.9066H38.6376V41.8629ZM37.6313 48.2066H44.4126V51.7066H37.6313V48.2066Z" fill="#EBF0F3"/>
<path d="M45.974 46.0317C46.4533 46.1984 47.0412 45.7599 47.2872 45.0524C47.5332 44.3449 47.3441 43.6363 46.8648 43.4697C46.3855 43.3031 45.7976 43.7415 45.5516 44.449C45.3056 45.1565 45.4947 45.8651 45.974 46.0317Z" fill="#EBF0F3"/>
<path d="M35.2269 43.434C34.7477 43.6006 34.5586 44.3093 34.8045 45.0168C35.0505 45.7242 35.6385 46.1627 36.1177 45.9961C36.597 45.8294 36.7861 45.1208 36.5401 44.4133C36.2941 43.7058 35.7062 43.2674 35.2269 43.434Z" fill="#EBF0F3"/>
<path d="M52.4187 61.2875C52.4187 62.9063 51.0625 64.2188 49.4438 64.2188H32.5562C30.9375 64.2188 29.625 62.9063 29.5813 61.2875C29.5813 59.0563 29.5375 56.2125 29.625 54.8562C29.6687 53.675 30.2813 52.975 30.8938 52.4937C31.5063 52.0562 32.075 51.925 32.075 51.925L35.225 51.1812L36.275 50.9187H36.3187L37.675 48.9062H44.4563L45.8125 50.9187H45.8562L46.95 51.1812L50.0125 51.925C50.0125 51.925 52.3312 52.4937 52.4187 54.8562C52.4625 56.2125 52.4187 59.1 52.4187 61.2875Z" fill="#64798A"/>
<path d="M46.5562 39.3249C46.5562 39.3249 46.3375 37.9249 45.1562 37.3999C45.1562 37.3999 43.9312 35.2562 41.7875 35.4312C41.7875 35.4312 38.725 35.1249 36.9312 36.4374C35.1375 37.7062 34.8312 41.5999 35.4 43.4374L35.7937 44.6186C36.0125 45.1436 36.1437 45.7124 36.1875 46.2812C36.3187 47.8999 37.675 49.1249 39.2937 49.1249H42.6625C44.1937 49.1249 45.5062 48.0312 45.725 46.4999C45.8562 45.6249 46.1187 44.8812 46.1187 44.7936C46.4687 43.4374 47.2562 41.3374 46.5562 39.3249Z" fill="#64798A"/>
<path d="M44.4125 48.95L45.7688 50.9625H36.2313H36.275L37.6313 48.95H44.4125Z" fill="#E56353"/>
</g>
<defs>
<linearGradient id="paint0_linear_49_9377" x1="60.0728" y1="64.2056" x2="24.7162" y2="28.8495" gradientUnits="userSpaceOnUse">
<stop offset="0.061" stop-color="white" stop-opacity="0"/>
<stop offset="0.162" stop-color="#CDCDCD" stop-opacity="0.107"/>
<stop offset="0.284" stop-color="#979797" stop-opacity="0.237"/>
<stop offset="0.407" stop-color="#696969" stop-opacity="0.369"/>
<stop offset="0.53" stop-color="#434343" stop-opacity="0.499"/>
<stop offset="0.651" stop-color="#262626" stop-opacity="0.628"/>
<stop offset="0.771" stop-color="#111111" stop-opacity="0.756"/>
<stop offset="0.888" stop-color="#040404" stop-opacity="0.881"/>
<stop offset="1"/>
</linearGradient>
<clipPath id="clip0_49_9377">
<rect width="56" height="56" fill="white" transform="translate(13 15)"/>
</clipPath>
</defs>
</svg>
