<svg width="32" height="32" viewBox="0 0 32 32" fill="none" xmlns="http://www.w3.org/2000/svg">
<circle cx="16" cy="16" r="16" fill="#F8F8F8"/>
<path d="M22.4667 15.5333L17.1333 10.2C16.8667 9.93333 16.4667 9.93333 16.2 10.2C16.0667 10.3333 16 10.4667 16 10.6667V13C12.2 13.3333 9.33334 16.5333 9.33334 20.3333V21.3333C9.33334 21.7333 9.60001 22 10 22C10.2 22 10.4 21.9333 10.5333 21.7333C11.8667 20.1333 13.7333 19.2 15.8 19.0667C15.8 19.0667 15.9333 19.0667 16 19.0667V21.3333C16 21.7333 16.2667 22 16.6667 22C16.8667 22 17 21.9333 17.1333 21.8L22.4667 16.4667C22.7333 16.2 22.7333 15.8 22.4667 15.5333Z" fill="#E97862"/>
</svg>
