<svg width="85" height="85" viewBox="0 0 85 85" fill="none" xmlns="http://www.w3.org/2000/svg">
<rect width="85" height="85" rx="8" fill="white"/>
<path d="M36.625 21.125H21.9688C21.2153 21.1273 20.4933 21.4277 19.9605 21.9605C19.4277 22.4933 19.1273 23.2153 19.125 23.9688V38.625H25.25V37.75C25.25 37.0538 25.5266 36.3861 26.0188 35.8938C26.5111 35.4016 27.1788 35.125 27.875 35.125C28.5712 35.125 29.2389 35.4016 29.7312 35.8938C30.2234 36.3861 30.5 37.0538 30.5 37.75V38.625H36.625V32.5H37.5C38.1962 32.5 38.8639 32.2234 39.3562 31.7312C39.8484 31.2389 40.125 30.5712 40.125 29.875C40.125 29.1788 39.8484 28.5111 39.3562 28.0188C38.8639 27.5266 38.1962 27.25 37.5 27.25H36.625V21.125Z" fill="#F49898"/>
<path d="M62.875 38.625V23.9688C62.8727 23.2153 62.5723 22.4933 62.0395 21.9605C61.5067 21.4277 60.7847 21.1273 60.0312 21.125H45.375V27.25H46.25C46.9462 27.25 47.6139 27.5266 48.1062 28.0188C48.5984 28.5111 48.875 29.1788 48.875 29.875C48.875 30.5712 48.5984 31.2389 48.1062 31.7312C47.6139 32.2234 46.9462 32.5 46.25 32.5H45.375V38.625H51.5V39.5C51.5 40.1962 51.7766 40.8639 52.2688 41.3562C52.7611 41.8484 53.4288 42.125 54.125 42.125C54.8212 42.125 55.4889 41.8484 55.9812 41.3562C56.4734 40.8639 56.75 40.1962 56.75 39.5V38.625H62.875Z" fill="#7FDB8A"/>
<path d="M45.375 64.875H60.0312C60.7847 64.8727 61.5067 64.5723 62.0395 64.0395C62.5723 63.5067 62.8727 62.7847 62.875 62.0312V47.375H56.75V48.25C56.75 48.9462 56.4734 49.6139 55.9812 50.1062C55.4889 50.5984 54.8212 50.875 54.125 50.875C53.4288 50.875 52.7611 50.5984 52.2688 50.1062C51.7766 49.6139 51.5 48.9462 51.5 48.25V47.375H45.375V53.5H44.5C43.8038 53.5 43.1361 53.7766 42.6438 54.2688C42.1516 54.7611 41.875 55.4288 41.875 56.125C41.875 56.8212 42.1516 57.4889 42.6438 57.9812C43.1361 58.4734 43.8038 58.75 44.5 58.75H45.375V64.875Z" fill="#BAD9F7"/>
<path d="M19.125 47.375V62.0312C19.1273 62.7847 19.4277 63.5067 19.9605 64.0395C20.4933 64.5723 21.2153 64.8727 21.9688 64.875H36.625V58.75H35.75C35.0538 58.75 34.3861 58.4734 33.8938 57.9812C33.4016 57.4889 33.125 56.8212 33.125 56.125C33.125 55.4288 33.4016 54.7611 33.8938 54.2688C34.3861 53.7766 35.0538 53.5 35.75 53.5H36.625V47.375H30.5V46.5C30.5 45.8038 30.2234 45.1361 29.7312 44.6438C29.2389 44.1516 28.5712 43.875 27.875 43.875C27.1788 43.875 26.5111 44.1516 26.0188 44.6438C25.5266 45.1361 25.25 45.8038 25.25 46.5V47.375H19.125Z" fill="#F2EA8C"/>
</svg>
