<svg width="267" height="825" viewBox="0 0 267 825" fill="none" xmlns="http://www.w3.org/2000/svg">
<path opacity="0.25" d="M-573.347 733.158C-572.546 729.184 -570.314 725.653 -567.086 723.25C-563.858 720.846 -559.863 719.741 -555.875 720.149C-551.887 720.556 -548.191 722.448 -545.503 725.456C-542.815 728.464 -541.327 732.375 -541.327 736.431C-541.327 740.486 -542.815 744.397 -545.503 747.406C-548.191 750.414 -551.887 752.306 -555.875 752.713C-559.863 753.121 -563.858 752.016 -567.086 749.612C-570.314 747.208 -572.546 743.677 -573.347 739.704H-716V733.158H-573.347ZM-55.7866 890.263C-54.9849 886.29 -52.7537 882.759 -49.5255 880.355C-46.2972 877.951 -42.3018 876.846 -38.314 877.254C-34.3262 877.662 -30.63 879.553 -27.9421 882.561C-25.2541 885.57 -23.7658 889.481 -23.7658 893.536C-23.7658 897.592 -25.2541 901.503 -27.9421 904.511C-30.63 907.519 -34.3262 909.411 -38.314 909.818C-42.3018 910.226 -46.2972 909.121 -49.5255 906.717C-52.7537 904.314 -54.9849 900.783 -55.7866 896.809H-450.75V890.263H-55.7866ZM131.182 739.704C130.381 743.677 128.149 747.208 124.921 749.612C121.693 752.016 117.697 753.121 113.71 752.713C109.722 752.306 106.026 750.414 103.338 747.406C100.65 744.397 99.1614 740.486 99.1614 736.431C99.1614 732.375 100.65 728.464 103.338 725.456C106.026 722.448 109.722 720.556 113.71 720.149C117.697 719.741 121.693 720.846 124.921 723.25C128.149 725.653 130.381 729.184 131.182 733.158H267.365V739.704H131.182ZM131.182 792.072C130.381 796.046 128.149 799.577 124.921 801.98C121.693 804.384 117.697 805.489 113.71 805.082C109.722 804.674 106.026 802.783 103.338 799.774C100.65 796.766 99.1614 792.855 99.1614 788.799C99.1614 784.744 100.65 780.833 103.338 777.824C106.026 774.816 109.722 772.925 113.71 772.517C117.697 772.109 121.693 773.215 124.921 775.618C128.149 778.022 130.381 781.553 131.182 785.526H267.365V792.072H131.182ZM151.238 418.947C152.039 414.974 154.271 411.443 157.499 409.039C160.727 406.636 164.722 405.531 168.71 405.938C172.698 406.346 176.394 408.237 179.082 411.245C181.77 414.254 183.258 418.165 183.258 422.22C183.258 426.276 181.77 430.187 179.082 433.195C176.394 436.204 172.698 438.095 168.71 438.503C164.722 438.91 160.727 437.805 157.499 435.401C154.271 432.998 152.039 429.467 151.238 425.493H-127.598C-128.4 429.467 -130.631 432.998 -133.859 435.401C-137.088 437.805 -141.083 438.91 -145.071 438.503C-149.059 438.095 -152.755 436.204 -155.443 433.195C-158.131 430.187 -159.619 426.276 -159.619 422.22C-159.619 418.165 -158.131 414.254 -155.443 411.245C-152.755 408.237 -149.059 406.346 -145.071 405.938C-141.083 405.531 -137.088 406.636 -133.859 409.039C-130.631 411.443 -128.4 414.974 -127.598 418.947H151.238ZM-676.859 261.842C-676.058 257.868 -673.827 254.338 -670.598 251.934C-667.37 249.53 -663.375 248.425 -659.387 248.833C-655.399 249.24 -651.703 251.132 -649.015 254.14C-646.327 257.148 -644.839 261.06 -644.839 265.115C-644.839 269.171 -646.327 273.082 -649.015 276.09C-651.703 279.098 -655.399 280.99 -659.387 281.397C-663.375 281.805 -667.37 280.7 -670.598 278.296C-673.827 275.893 -676.058 272.362 -676.859 268.388H-716V261.842H-676.859ZM-75.8421 373.125C-76.6437 377.099 -78.8749 380.629 -82.1032 383.033C-85.3315 385.437 -89.3268 386.542 -93.3147 386.134C-97.3025 385.727 -100.999 383.835 -103.687 380.827C-106.375 377.819 -107.863 373.908 -107.863 369.852C-107.863 365.796 -106.375 361.885 -103.687 358.877C-100.999 355.869 -97.3025 353.977 -93.3147 353.57C-89.3268 353.162 -85.3315 354.267 -82.1032 356.671C-78.8749 359.074 -76.6437 362.605 -75.8421 366.579H202.994C203.795 362.605 206.027 359.074 209.255 356.671C212.483 354.267 216.479 353.162 220.466 353.57C224.454 353.977 228.15 355.869 230.838 358.877C233.526 361.885 235.015 365.796 235.015 369.852C235.015 373.908 233.526 377.819 230.838 380.827C228.15 383.835 224.454 385.727 220.466 386.134C216.479 386.542 212.483 385.437 209.255 383.033C206.027 380.629 203.795 377.099 202.994 373.125H-75.8421ZM118.567 39.6036C122.494 40.4147 125.983 42.6724 128.359 45.9389C130.734 49.2053 131.827 53.248 131.424 57.2829C131.021 61.3179 129.152 65.0579 126.179 67.7776C123.205 70.4974 119.34 72.0032 115.332 72.0032C111.324 72.0032 107.458 70.4974 104.485 67.7776C101.512 65.0579 99.6429 61.3179 99.2401 57.2829C98.8372 53.248 99.9294 49.2053 102.305 45.9389C104.68 42.6724 108.17 40.4147 112.097 39.6036V0H118.567V39.6036ZM-88.4576 720.393C-84.5305 721.204 -81.0409 723.462 -78.6654 726.728C-76.2899 729.995 -75.1976 734.037 -75.6005 738.072C-76.0034 742.107 -77.8726 745.847 -80.8458 748.567C-83.8189 751.287 -87.6843 752.793 -91.6924 752.793C-95.7005 752.793 -99.5658 751.287 -102.539 748.567C-105.512 745.847 -107.381 742.107 -107.784 738.072C-108.187 734.037 -107.095 729.995 -104.719 726.728C-102.344 723.462 -98.8542 721.204 -94.9271 720.393V542.995C-98.8542 542.184 -102.344 539.926 -104.719 536.66C-107.095 533.393 -108.187 529.351 -107.784 525.316C-107.381 521.281 -105.512 517.541 -102.539 514.821C-99.5658 512.101 -95.7005 510.595 -91.6924 510.595C-87.6843 510.595 -83.8189 512.101 -80.8458 514.821C-77.8726 517.541 -76.0034 521.281 -75.6005 525.316C-75.1976 529.351 -76.2899 533.393 -78.6654 536.66C-81.0409 539.926 -84.5305 542.184 -88.4576 542.995V720.393ZM66.8106 71.6793V261.842H267.365V268.388H60.3411V71.6793C56.4139 70.8682 52.9244 68.6105 50.5489 65.344C48.1733 62.0776 47.0811 58.0349 47.4839 53.9999C47.8868 49.965 49.756 46.225 52.7292 43.5053C55.7024 40.7855 59.5677 39.2797 63.5759 39.2797C67.584 39.2797 71.4493 40.7855 74.4225 43.5053C77.3956 46.225 79.2649 49.965 79.6677 53.9999C80.0706 58.0349 78.9783 62.0776 76.6028 65.344C74.2273 68.6105 70.7377 70.8682 66.8106 71.6793ZM118.567 124.048V209.474H267.365V216.02H112.097V124.048C108.17 123.237 104.68 120.979 102.305 117.712C99.9294 114.446 98.8372 110.403 99.2401 106.368C99.6429 102.333 101.512 98.5935 104.485 95.8737C107.458 93.1539 111.324 91.6481 115.332 91.6481C119.34 91.6481 123.205 93.1539 126.179 95.8737C129.152 98.5935 131.021 102.333 131.424 106.368C131.827 110.403 130.734 114.446 128.359 117.712C125.983 120.979 122.494 123.237 118.567 124.048ZM-295.482 438.258V680.789H-243.726V720.393C-239.799 721.204 -236.309 723.462 -233.934 726.728C-231.558 729.995 -230.466 734.037 -230.869 738.072C-231.272 742.107 -233.141 745.847 -236.114 748.567C-239.087 751.287 -242.952 752.793 -246.961 752.793C-250.969 752.793 -254.834 751.287 -257.807 748.567C-260.78 745.847 -262.65 742.107 -263.052 738.072C-263.455 734.037 -262.363 729.995 -259.988 726.728C-257.612 723.462 -254.122 721.204 -250.195 720.393V687.336H-301.951V438.258C-305.879 437.447 -309.368 435.189 -311.744 431.923C-314.119 428.657 -315.211 424.614 -314.809 420.579C-314.406 416.544 -312.536 412.804 -309.563 410.084C-306.59 407.364 -302.725 405.859 -298.717 405.859C-294.709 405.859 -290.843 407.364 -287.87 410.084C-284.897 412.804 -283.028 416.544 -282.625 420.579C-282.222 424.614 -283.314 428.657 -285.69 431.923C-288.065 435.189 -291.555 437.447 -295.482 438.258ZM-314.567 366.579C-313.765 362.605 -311.534 359.074 -308.306 356.671C-305.078 354.267 -301.082 353.162 -297.094 353.57C-293.107 353.977 -289.41 355.869 -286.722 358.877C-284.034 361.885 -282.546 365.796 -282.546 369.852C-282.546 373.908 -284.034 377.819 -286.722 380.827C-289.41 383.835 -293.107 385.727 -297.094 386.134C-301.082 386.542 -305.078 385.437 -308.306 383.033C-311.534 380.629 -313.765 377.099 -314.567 373.125H-347.238V530.23H-438.135C-438.936 534.204 -441.167 537.735 -444.396 540.138C-447.624 542.542 -451.619 543.647 -455.607 543.24C-459.595 542.832 -463.291 540.941 -465.979 537.932C-468.667 534.924 -470.155 531.013 -470.155 526.957C-470.155 522.902 -468.667 518.991 -465.979 515.982C-463.291 512.974 -459.595 511.083 -455.607 510.675C-451.619 510.267 -447.624 511.372 -444.396 513.776C-441.167 516.18 -438.936 519.711 -438.135 523.684H-353.707V366.579H-314.567ZM-334.622 792.072C-335.424 796.046 -337.655 799.577 -340.884 801.98C-344.112 804.384 -348.107 805.489 -352.095 805.082C-356.083 804.674 -359.779 802.783 -362.467 799.774C-365.155 796.766 -366.643 792.855 -366.643 788.799C-366.643 784.744 -365.155 780.833 -362.467 777.824C-359.779 774.816 -356.083 772.925 -352.095 772.517C-348.107 772.109 -344.112 773.215 -340.884 775.618C-337.655 778.022 -335.424 781.553 -334.622 785.526H-146.683V542.995C-150.61 542.184 -154.1 539.926 -156.475 536.66C-158.851 533.393 -159.943 529.351 -159.54 525.316C-159.137 521.281 -157.268 517.541 -154.295 514.821C-151.322 512.101 -147.457 510.595 -143.448 510.595C-139.44 510.595 -135.575 512.101 -132.602 514.821C-129.629 517.541 -127.759 521.281 -127.357 525.316C-126.954 529.351 -128.046 533.393 -130.421 536.66C-132.797 539.926 -136.287 542.184 -140.214 542.995V792.072H-334.622ZM-386.379 582.599C-387.18 586.572 -389.411 590.103 -392.64 592.507C-395.868 594.91 -399.863 596.016 -403.851 595.608C-407.839 595.2 -411.535 593.309 -414.223 590.301C-416.911 587.292 -418.399 583.381 -418.399 579.326C-418.399 575.27 -416.911 571.359 -414.223 568.351C-411.535 565.342 -407.839 563.451 -403.851 563.043C-399.863 562.636 -395.868 563.741 -392.64 566.145C-389.411 568.548 -387.18 572.079 -386.379 576.053H-347.238V733.158H-314.567C-313.765 729.184 -311.534 725.653 -308.306 723.25C-305.078 720.846 -301.082 719.741 -297.094 720.149C-293.107 720.556 -289.41 722.448 -286.722 725.456C-284.034 728.464 -282.546 732.375 -282.546 736.431C-282.546 740.486 -284.034 744.397 -286.722 747.406C-289.41 750.414 -293.107 752.306 -297.094 752.713C-301.082 753.121 -305.078 752.016 -308.306 749.612C-311.534 747.208 -313.765 743.677 -314.567 739.704H-353.707V582.599H-386.379ZM-502.506 929.867C-498.579 930.678 -495.089 932.935 -492.714 936.202C-490.338 939.468 -489.246 943.511 -489.649 947.546C-490.052 951.581 -491.921 955.321 -494.894 958.041C-497.867 960.761 -501.733 962.266 -505.741 962.266C-509.749 962.266 -513.614 960.761 -516.588 958.041C-519.561 955.321 -521.43 951.581 -521.833 947.546C-522.236 943.511 -521.143 939.468 -518.768 936.202C-516.392 932.935 -512.903 930.678 -508.976 929.867V896.809H-554.262V995H-560.732V890.263H-502.506V929.867ZM47.7256 576.053C48.5272 572.079 50.7584 568.548 53.9867 566.145C57.215 563.741 61.2103 562.636 65.1982 563.043C69.186 563.451 72.8821 565.342 75.5701 568.351C78.2581 571.359 79.7463 575.27 79.7463 579.326C79.7463 583.381 78.2581 587.292 75.5701 590.301C72.8821 593.309 69.186 595.2 65.1982 595.608C61.2103 596.016 57.215 594.91 53.9867 592.507C50.7584 590.103 48.5272 586.572 47.7256 582.599H15.0545V890.263H170.323V995H163.853V896.809H8.58502V576.053H47.7256ZM131.182 477.862C130.381 481.835 128.149 485.366 124.921 487.77C121.693 490.174 117.697 491.279 113.71 490.871C109.722 490.463 106.026 488.572 103.338 485.564C100.65 482.555 99.1614 478.644 99.1614 474.589C99.1614 470.533 100.65 466.622 103.338 463.614C106.026 460.605 109.722 458.714 113.71 458.307C117.697 457.899 121.693 459.004 124.921 461.408C128.149 463.811 130.381 467.342 131.182 471.316H170.323V615.656C174.25 616.467 177.739 618.725 180.115 621.991C182.49 625.258 183.583 629.301 183.18 633.336C182.777 637.371 180.908 641.11 177.935 643.83C174.961 646.55 171.096 648.056 167.088 648.056C163.08 648.056 159.215 646.55 156.241 643.83C153.268 641.11 151.399 637.371 150.996 633.336C150.593 629.301 151.685 625.258 154.061 621.991C156.437 618.725 159.926 616.467 163.853 615.656V477.862H131.182ZM-75.8421 792.072C-76.6437 796.046 -78.8749 799.577 -82.1032 801.98C-85.3315 804.384 -89.3268 805.489 -93.3147 805.082C-97.3025 804.674 -100.999 802.783 -103.687 799.774C-106.375 796.766 -107.863 792.855 -107.863 788.799C-107.863 784.744 -106.375 780.833 -103.687 777.824C-100.999 774.816 -97.3025 772.925 -93.3147 772.517C-89.3268 772.109 -85.3315 773.215 -82.1032 775.618C-78.8749 778.022 -76.6437 781.553 -75.8421 785.526H-43.171V523.684H8.58502V477.862H-127.598C-128.4 481.835 -130.631 485.366 -133.859 487.77C-137.088 490.174 -141.083 491.279 -145.071 490.871C-149.059 490.463 -152.755 488.572 -155.443 485.564C-158.131 482.555 -159.619 478.644 -159.619 474.589C-159.619 470.533 -158.131 466.622 -155.443 463.614C-152.755 460.605 -149.059 458.714 -145.071 458.307C-141.083 457.899 -137.088 459.004 -133.859 461.408C-130.631 463.811 -128.4 467.342 -127.598 471.316H15.0545V530.23H-36.7015V792.072H-75.8421ZM202.994 104.737C203.795 100.763 206.027 97.2324 209.255 94.8287C212.483 92.4251 216.479 91.32 220.466 91.7276C224.454 92.1352 228.15 94.0266 230.838 97.0349C233.526 100.043 235.015 103.954 235.015 108.01C235.015 112.065 233.526 115.976 230.838 118.985C228.15 121.993 224.454 123.885 220.466 124.292C216.479 124.7 212.483 123.595 209.255 121.191C206.027 118.787 203.795 115.256 202.994 111.283H163.853V0H170.323V104.737H202.994ZM-398.994 333.521V477.862H-541.647C-542.448 481.835 -544.68 485.366 -547.908 487.77C-551.136 490.174 -555.132 491.279 -559.119 490.871C-563.107 490.463 -566.803 488.572 -569.491 485.564C-572.179 482.555 -573.667 478.644 -573.667 474.589C-573.667 470.533 -572.179 466.622 -569.491 463.614C-566.803 460.605 -563.107 458.714 -559.119 458.307C-555.132 457.899 -551.136 459.004 -547.908 461.408C-544.68 463.811 -542.448 467.342 -541.647 471.316H-405.464V333.521C-409.391 332.71 -412.88 330.453 -415.256 327.186C-417.631 323.92 -418.724 319.877 -418.321 315.842C-417.918 311.807 -416.049 308.067 -413.075 305.347C-410.102 302.628 -406.237 301.122 -402.229 301.122C-398.221 301.122 -394.355 302.628 -391.382 305.347C-388.409 308.067 -386.54 311.807 -386.137 315.842C-385.734 319.877 -386.826 323.92 -389.202 327.186C-391.577 330.453 -395.067 332.71 -398.994 333.521ZM-541.647 111.283C-542.448 115.256 -544.68 118.787 -547.908 121.191C-551.136 123.595 -555.132 124.7 -559.119 124.292C-563.107 123.885 -566.803 121.993 -569.491 118.985C-572.179 115.976 -573.667 112.065 -573.667 108.01C-573.667 103.954 -572.179 100.043 -569.491 97.0349C-566.803 94.0266 -563.107 92.1352 -559.119 91.7276C-555.132 91.32 -551.136 92.4251 -547.908 94.8287C-544.68 97.2324 -542.448 100.763 -541.647 104.737H-457.22V0H-450.75V111.283H-541.647ZM-347.238 124.048V216.02H-450.75V425.493H-489.891C-490.692 429.467 -492.924 432.998 -496.152 435.401C-499.38 437.805 -503.375 438.91 -507.363 438.503C-511.351 438.095 -515.047 436.204 -517.735 433.195C-520.423 430.187 -521.911 426.276 -521.911 422.22C-521.911 418.165 -520.423 414.254 -517.735 411.245C-515.047 408.237 -511.351 406.346 -507.363 405.938C-503.375 405.531 -499.38 406.636 -496.152 409.039C-492.924 411.443 -490.692 414.974 -489.891 418.947H-457.22V209.474H-353.707V124.048C-357.635 123.237 -361.124 120.979 -363.5 117.712C-365.875 114.446 -366.967 110.403 -366.565 106.368C-366.162 102.333 -364.293 98.5935 -361.319 95.8737C-358.346 93.1539 -354.481 91.6481 -350.473 91.6481C-346.465 91.6481 -342.599 93.1539 -339.626 95.8737C-336.653 98.5935 -334.784 102.333 -334.381 106.368C-333.978 110.403 -335.07 114.446 -337.446 117.712C-339.821 120.979 -343.311 123.237 -347.238 124.048ZM-386.379 268.388C-387.18 272.362 -389.411 275.893 -392.64 278.296C-395.868 280.7 -399.863 281.805 -403.851 281.397C-407.839 280.99 -411.535 279.098 -414.223 276.09C-416.911 273.082 -418.399 269.171 -418.399 265.115C-418.399 261.06 -416.911 257.148 -414.223 254.14C-411.535 251.132 -407.839 249.24 -403.851 248.833C-399.863 248.425 -395.868 249.53 -392.64 251.934C-389.411 254.338 -387.18 257.868 -386.379 261.842H-301.951V124.048C-305.879 123.237 -309.368 120.979 -311.744 117.712C-314.119 114.446 -315.211 110.403 -314.809 106.368C-314.406 102.333 -312.536 98.5935 -309.563 95.8737C-306.59 93.1539 -302.725 91.6481 -298.717 91.6481C-294.709 91.6481 -290.843 93.1539 -287.87 95.8737C-284.897 98.5935 -283.028 102.333 -282.625 106.368C-282.222 110.403 -283.314 114.446 -285.69 117.712C-288.065 120.979 -291.555 123.237 -295.482 124.048V268.388H-386.379ZM-334.622 58.9145C-335.424 62.8881 -337.655 66.4189 -340.884 68.8226C-344.112 71.2262 -348.107 72.3313 -352.095 71.9237C-356.083 71.5161 -359.779 69.6248 -362.467 66.6164C-365.155 63.608 -366.643 59.697 -366.643 55.6414C-366.643 51.5859 -365.155 47.6748 -362.467 44.6665C-359.779 41.6581 -356.083 39.7668 -352.095 39.3592C-348.107 38.9516 -344.112 40.0567 -340.884 42.4603C-337.655 44.8639 -335.424 48.3948 -334.622 52.3684H-243.726V196.709C-239.799 197.52 -236.309 199.778 -233.934 203.044C-231.558 206.311 -230.466 210.353 -230.869 214.388C-231.272 218.423 -233.141 222.163 -236.114 224.883C-239.087 227.603 -242.952 229.108 -246.961 229.108C-250.969 229.108 -254.834 227.603 -257.807 224.883C-260.78 222.163 -262.65 218.423 -263.052 214.388C-263.455 210.353 -262.363 206.311 -259.988 203.044C-257.612 199.778 -254.122 197.52 -250.195 196.709V58.9145H-334.622ZM-4.03052 942.632C-3.22888 938.658 -0.997681 935.127 2.23059 932.723C5.45892 930.32 9.45428 929.215 13.4421 929.622C17.4299 930.03 21.126 931.921 23.814 934.93C26.502 937.938 27.9902 941.849 27.9902 945.905C27.9902 949.96 26.502 953.871 23.814 956.88C21.126 959.888 17.4299 961.779 13.4421 962.187C9.45428 962.594 5.45892 961.489 2.23059 959.086C-0.997681 956.682 -3.22888 953.151 -4.03052 949.178H-398.994V995H-405.464V942.632H-4.03052ZM66.8106 490.627V523.684H118.567V634.967H66.8106V837.895H222.079V995H215.609V844.441H60.3411V628.421H112.097V530.23H60.3411V490.627C56.4139 489.815 52.9244 487.558 50.5489 484.291C48.1733 481.025 47.0811 476.982 47.4839 472.947C47.8868 468.912 49.756 465.172 52.7292 462.453C55.7024 459.733 59.5677 458.227 63.5759 458.227C67.584 458.227 71.4493 459.733 74.4225 462.453C77.3956 465.172 79.2649 468.912 79.6677 472.947C80.0706 476.982 78.9783 481.025 76.6028 484.291C74.2273 487.558 70.7377 489.815 66.8106 490.627ZM-541.647 58.9145C-542.448 62.8881 -544.68 66.4189 -547.908 68.8226C-551.136 71.2262 -555.132 72.3313 -559.119 71.9237C-563.107 71.5161 -566.803 69.6248 -569.491 66.6164C-572.179 63.608 -573.667 59.697 -573.667 55.6414C-573.667 51.5859 -572.179 47.6748 -569.491 44.6665C-566.803 41.6581 -563.107 39.7668 -559.119 39.3592C-555.132 38.9516 -551.136 40.0567 -547.908 42.4603C-544.68 44.8639 -542.448 48.3948 -541.647 52.3684H-508.976V6.54605H-560.732V0H-502.506V58.9145H-541.647ZM-179.354 163.651C-180.156 167.625 -182.387 171.156 -185.615 173.559C-188.844 175.963 -192.839 177.068 -196.827 176.661C-200.815 176.253 -204.511 174.362 -207.199 171.353C-209.887 168.345 -211.375 164.434 -211.375 160.378C-211.375 156.323 -209.887 152.412 -207.199 149.403C-204.511 146.395 -200.815 144.504 -196.827 144.096C-192.839 143.688 -188.844 144.794 -185.615 147.197C-182.387 149.601 -180.156 153.132 -179.354 157.105H-94.9271V0H66.8106V6.54605H-88.4576V163.651H-179.354ZM-334.622 6.54605C-335.047 8.65217 -335.878 10.653 -337.067 12.4343C-338.256 14.2156 -339.78 15.7425 -341.552 16.9279C-343.324 18.1132 -345.31 18.9337 -347.396 19.3426C-349.481 19.7515 -351.626 19.7407 -353.707 19.3109C-355.789 18.881 -357.766 18.0406 -359.527 16.8375C-361.287 15.6344 -362.796 14.0923 -363.968 12.2991C-366.334 8.67762 -367.181 4.2535 -366.323 0L-359.627 0C-360.142 1.48061 -360.298 3.06451 -360.083 4.61893C-359.868 6.17334 -359.288 7.65297 -358.392 8.93379C-357.495 10.2146 -356.308 11.2593 -354.93 11.9803C-353.553 12.7012 -352.024 13.0775 -350.473 13.0775C-348.922 13.0775 -347.393 12.7012 -346.015 11.9803C-344.637 11.2593 -343.45 10.2146 -342.554 8.93379C-341.657 7.65297 -341.077 6.17334 -340.862 4.61893C-340.647 3.06451 -340.804 1.48061 -341.318 0L-140.214 0V111.283H-198.439V71.6793C-202.366 70.8682 -205.856 68.6105 -208.231 65.344C-210.607 62.0776 -211.699 58.0349 -211.296 53.9999C-210.894 49.965 -209.024 46.225 -206.051 43.5053C-203.078 40.7855 -199.213 39.2797 -195.205 39.2797C-191.196 39.2797 -187.331 40.7855 -184.358 43.5053C-181.385 46.225 -179.516 49.965 -179.113 53.9999C-178.71 58.0349 -179.802 62.0776 -182.178 65.344C-184.553 68.6105 -188.043 70.8682 -191.97 71.6793V104.737H-146.683V6.54605H-334.622ZM-334.622 320.757C-335.424 324.73 -337.655 328.261 -340.884 330.665C-344.112 333.068 -348.107 334.173 -352.095 333.766C-356.083 333.358 -359.779 331.467 -362.467 328.459C-365.155 325.45 -366.643 321.539 -366.643 317.484C-366.643 313.428 -365.155 309.517 -362.467 306.509C-359.779 303.5 -356.083 301.609 -352.095 301.201C-348.107 300.794 -344.112 301.899 -340.884 304.302C-337.655 306.706 -335.424 310.237 -334.622 314.211H-272.839L-169.326 209.474H-43.171V71.6793C-47.0982 70.8682 -50.5878 68.6105 -52.9633 65.344C-55.3388 62.0776 -56.431 58.0349 -56.0282 53.9999C-55.6253 49.965 -53.7561 46.225 -50.7829 43.5053C-47.8098 40.7855 -43.9444 39.2797 -39.9363 39.2797C-35.9282 39.2797 -32.0629 40.7855 -29.0897 43.5053C-26.1165 46.225 -24.2473 49.965 -23.8444 53.9999C-23.4415 58.0349 -24.5338 62.0776 -26.9093 65.344C-29.2849 68.6105 -32.7744 70.8682 -36.7015 71.6793V216.02H-166.642L-270.154 320.757H-334.622ZM-243.726 615.656C-239.799 616.467 -236.309 618.725 -233.934 621.991C-231.558 625.258 -230.466 629.301 -230.869 633.336C-231.272 637.371 -233.141 641.11 -236.114 643.83C-239.087 646.55 -242.952 648.056 -246.961 648.056C-250.969 648.056 -254.834 646.55 -257.807 643.83C-260.78 641.11 -262.65 637.371 -263.052 633.336C-263.455 629.301 -262.363 625.258 -259.988 621.991C-257.612 618.725 -254.122 616.467 -250.195 615.656V365.237L-148.009 261.842H8.58502V71.6793C4.6579 70.8682 1.16833 68.6105 -1.20721 65.344C-3.5827 62.0776 -4.67499 58.0349 -4.27209 53.9999C-3.86926 49.965 -2 46.225 0.973145 43.5053C3.94635 40.7855 7.81165 39.2797 11.8198 39.2797C15.8279 39.2797 19.6932 40.7855 22.6664 43.5053C25.6396 46.225 27.5088 49.965 27.9117 53.9999C28.3145 58.0349 27.2223 62.0776 24.8467 65.344C22.4713 68.6105 18.9817 70.8682 15.0545 71.6793V268.388H-145.357L-243.726 367.921V615.656ZM-191.97 720.393C-188.043 721.204 -184.553 723.462 -182.178 726.728C-179.802 729.995 -178.71 734.037 -179.113 738.072C-179.516 742.107 -181.385 745.847 -184.358 748.567C-187.331 751.287 -191.196 752.793 -195.205 752.793C-199.213 752.793 -203.078 751.287 -206.051 748.567C-209.024 745.847 -210.894 742.107 -211.296 738.072C-211.699 734.037 -210.607 729.995 -208.231 726.728C-205.856 723.462 -202.366 721.204 -198.439 720.393V394.694L-118.897 314.211H254.75C255.384 311.065 256.918 308.178 259.161 305.909C261.404 303.639 264.257 302.087 267.365 301.446V308.221C265.47 308.896 263.828 310.149 262.667 311.808C261.505 313.467 260.881 315.45 260.881 317.484C260.881 319.517 261.505 321.5 262.667 323.159C263.828 324.818 265.47 326.072 267.365 326.746V333.521C264.257 332.88 261.404 331.328 259.161 329.058C256.918 326.789 255.384 323.902 254.75 320.757H-116.244L-191.97 397.378V720.393ZM-657.774 510.919C-653.847 511.731 -650.358 513.988 -647.982 517.255C-645.607 520.521 -644.514 524.564 -644.917 528.599C-645.32 532.634 -647.189 536.374 -650.163 539.093C-653.136 541.813 -657.001 543.319 -661.009 543.319C-665.017 543.319 -668.883 541.813 -671.856 539.093C-674.829 536.374 -676.698 532.634 -677.101 528.599C-677.504 524.564 -676.412 520.521 -674.036 517.255C-671.661 513.988 -668.171 511.731 -664.244 510.919V499.431L-508.976 342.326V157.105H-405.464V0H-398.994V163.651H-502.506V345.01L-657.774 502.115V510.919ZM-554.262 176.416V318.826L-709.53 475.931V680.789H-625.103C-624.302 676.816 -622.071 673.285 -618.842 670.881C-615.614 668.478 -611.619 667.373 -607.631 667.78C-603.643 668.188 -599.947 670.079 -597.259 673.088C-594.571 676.096 -593.083 680.007 -593.083 684.062C-593.083 688.118 -594.571 692.029 -597.259 695.037C-599.947 698.046 -603.643 699.937 -607.631 700.345C-611.619 700.752 -615.614 699.647 -618.842 697.244C-622.071 694.84 -624.302 691.309 -625.103 687.336H-716V473.247L-560.732 316.142V176.416C-564.659 175.605 -568.149 173.347 -570.524 170.081C-572.9 166.814 -573.992 162.772 -573.589 158.737C-573.186 154.702 -571.317 150.962 -568.344 148.242C-565.37 145.522 -561.505 144.016 -557.497 144.016C-553.489 144.016 -549.624 145.522 -546.65 148.242C-543.677 150.962 -541.808 154.702 -541.405 158.737C-541.002 162.772 -542.095 166.814 -544.47 170.081C-546.846 173.347 -550.335 175.605 -554.262 176.416ZM-606.018 228.785V292.641L-716 403.924V394.694L-612.488 289.957V228.785C-616.415 227.973 -619.905 225.716 -622.28 222.449C-624.656 219.183 -625.748 215.14 -625.345 211.105C-624.942 207.07 -623.073 203.33 -620.1 200.611C-617.127 197.891 -613.261 196.385 -609.253 196.385C-605.245 196.385 -601.38 197.891 -598.406 200.611C-595.433 203.33 -593.564 207.07 -593.161 211.105C-592.758 215.14 -593.851 219.183 -596.226 222.449C-598.602 225.716 -602.091 227.973 -606.018 228.785ZM-676.859 104.737C-676.058 100.763 -673.827 97.2324 -670.598 94.8287C-667.37 92.4251 -663.375 91.32 -659.387 91.7276C-655.399 92.1352 -651.703 94.0266 -649.015 97.0349C-646.327 100.043 -644.839 103.954 -644.839 108.01C-644.839 112.065 -646.327 115.976 -649.015 118.985C-651.703 121.993 -655.399 123.885 -659.387 124.292C-663.375 124.7 -667.37 123.595 -670.598 121.191C-673.827 118.787 -676.058 115.256 -676.859 111.283H-685.561L-716 142.082V132.885L-688.213 104.737H-676.859ZM182.938 163.651C182.137 167.625 179.905 171.156 176.677 173.559C173.449 175.963 169.453 177.068 165.466 176.661C161.478 176.253 157.782 174.362 155.094 171.353C152.406 168.345 150.917 164.434 150.917 160.378C150.917 156.323 152.406 152.412 155.094 149.403C157.782 146.395 161.478 144.504 165.466 144.096C169.453 143.688 173.449 144.794 176.677 147.197C179.905 149.601 182.137 153.132 182.938 157.105H243.396L267.365 132.852V142.082L246.048 163.651H182.938ZM131.182 687.336C130.381 691.309 128.149 694.84 124.921 697.244C121.693 699.647 117.697 700.752 113.71 700.345C109.722 699.937 106.026 698.046 103.338 695.037C100.65 692.029 99.1614 688.118 99.1614 684.062C99.1614 680.007 100.65 676.096 103.338 673.088C106.026 670.079 109.722 668.188 113.71 667.78C117.697 667.373 121.693 668.478 124.921 670.881C128.149 673.285 130.381 676.816 131.182 680.789H215.609V447.063L267.365 394.694V403.924L222.079 449.747V687.336H131.182ZM-541.647 792.072C-542.448 796.046 -544.68 799.577 -547.908 801.98C-551.136 804.384 -555.132 805.489 -559.119 805.082C-563.107 804.674 -566.803 802.783 -569.491 799.774C-572.179 796.766 -573.667 792.855 -573.667 788.799C-573.667 784.744 -572.179 780.833 -569.491 777.824C-566.803 774.816 -563.107 772.925 -559.119 772.517C-555.132 772.109 -551.136 773.215 -547.908 775.618C-544.68 778.022 -542.448 781.553 -541.647 785.526H-508.976V711.589L-584.701 634.967H-645.159C-645.96 638.941 -648.192 642.472 -651.42 644.875C-654.648 647.279 -658.644 648.384 -662.631 647.976C-666.619 647.569 -670.315 645.677 -673.003 642.669C-675.691 639.661 -677.18 635.75 -677.18 631.694C-677.18 627.639 -675.691 623.727 -673.003 620.719C-670.315 617.711 -666.619 615.819 -662.631 615.412C-658.644 615.004 -654.648 616.109 -651.42 618.513C-648.192 620.917 -645.96 624.447 -645.159 628.421H-582.049L-502.506 708.905V792.072H-541.647ZM-55.7866 837.895C-54.9849 833.921 -52.7537 830.39 -49.5255 827.987C-46.2972 825.583 -42.3018 824.478 -38.314 824.885C-34.3262 825.293 -30.63 827.184 -27.9421 830.193C-25.2541 833.201 -23.7658 837.112 -23.7658 841.168C-23.7658 845.223 -25.2541 849.134 -27.9421 852.143C-30.63 855.151 -34.3262 857.042 -38.314 857.45C-42.3018 857.858 -46.2972 856.752 -49.5255 854.349C-52.7537 851.945 -54.9849 848.414 -55.7866 844.441H-405.464V659.187L-532.913 530.23H-593.403C-594.204 534.204 -596.436 537.735 -599.664 540.138C-602.892 542.542 -606.888 543.647 -610.875 543.24C-614.863 542.832 -618.559 540.941 -621.247 537.932C-623.935 534.924 -625.424 531.013 -625.424 526.957C-625.424 522.902 -623.935 518.991 -621.247 515.982C-618.559 512.974 -614.863 511.083 -610.875 510.675C-606.888 510.267 -602.892 511.372 -599.664 513.776C-596.436 516.18 -594.204 519.711 -593.403 523.684H-530.325L-398.994 656.569V837.895H-55.7866ZM-541.647 844.441C-542.448 848.414 -544.68 851.945 -547.908 854.349C-551.136 856.752 -555.132 857.858 -559.119 857.45C-563.107 857.042 -566.803 855.151 -569.491 852.143C-572.179 849.134 -573.667 845.223 -573.667 841.168C-573.667 837.112 -572.179 833.201 -569.491 830.193C-566.803 827.184 -563.107 825.293 -559.119 824.885C-555.132 824.478 -551.136 825.583 -547.908 827.987C-544.68 830.39 -542.448 833.921 -541.647 837.895H-457.22V685.404L-558.823 582.599H-645.159C-645.96 586.572 -648.192 590.103 -651.42 592.507C-654.648 594.91 -658.644 596.016 -662.631 595.608C-666.619 595.2 -670.315 593.309 -673.003 590.301C-675.691 587.292 -677.18 583.381 -677.18 579.326C-677.18 575.27 -675.691 571.359 -673.003 568.351C-670.315 565.342 -666.619 563.451 -662.631 563.043C-658.644 562.636 -654.648 563.741 -651.42 566.145C-648.192 568.548 -645.96 572.079 -645.159 576.053H-556.171L-450.75 682.721V844.441H-541.647ZM-606.018 130.266V135.536L-685.561 216.02H-716V209.474H-688.213L-612.488 132.852V0H-606.018V130.266ZM-709.53 982.235C-706.422 982.877 -703.569 984.429 -701.326 986.698C-699.083 988.968 -697.549 991.855 -696.915 995H-703.611C-704.035 993.783 -704.692 992.663 -705.545 991.703C-706.397 990.744 -707.428 989.963 -708.579 989.407C-709.729 988.851 -710.977 988.529 -712.25 988.461C-713.524 988.393 -714.798 988.58 -716 989.01V837.895H-657.774V995H-664.244V844.441H-709.53V982.235ZM-606.018 788.799V995H-612.488V792.072H-716V785.526H-606.018V788.799ZM-661.009 58.9145H-716V52.3684H-664.244V0H-657.774V58.9145H-661.009ZM222.079 52.3684H267.365V58.9145H215.609V0H222.079V52.3684ZM118.567 945.905V995H112.097V949.178H66.8106V995H60.3411V942.632H118.567V945.905ZM-716 301.446C-713.651 300.973 -711.228 301.031 -708.904 301.617C-706.58 302.203 -704.413 303.301 -702.558 304.834C-700.703 306.367 -699.207 308.296 -698.175 310.483C-697.143 312.67 -696.603 315.06 -696.591 317.484C-696.591 319.911 -697.124 322.307 -698.152 324.5C-699.18 326.693 -700.677 328.627 -702.535 330.162C-704.393 331.697 -706.565 332.795 -708.893 333.376C-711.222 333.957 -713.65 334.007 -716 333.521V326.746C-714.537 327.267 -712.971 327.425 -711.435 327.208C-709.899 326.99 -708.437 326.404 -707.171 325.496C-705.905 324.589 -704.872 323.388 -704.16 321.994C-703.447 320.6 -703.075 319.053 -703.075 317.484C-703.075 315.914 -703.447 314.367 -704.16 312.973C-704.872 311.579 -705.905 310.378 -707.171 309.471C-708.437 308.564 -709.899 307.977 -711.435 307.759C-712.971 307.542 -714.537 307.7 -716 308.221V301.446ZM-457.22 890.263H-450.75V995H-457.22V890.263ZM-334.622 995H-341.318C-341.985 993.082 -343.224 991.421 -344.864 990.246C-346.503 989.07 -348.463 988.439 -350.473 988.439C-352.482 988.439 -354.442 989.07 -356.082 990.246C-357.721 991.421 -358.96 993.082 -359.627 995H-366.323C-365.581 991.301 -363.597 987.975 -360.708 985.586C-357.82 983.197 -354.204 981.891 -350.473 981.891C-346.742 981.891 -343.126 983.197 -340.237 985.586C-337.348 987.975 -335.365 991.301 -334.622 995ZM-696.915 0C-696.396 2.64849 -696.531 5.3855 -697.306 7.96894C-698.082 10.5524 -699.475 12.9026 -701.361 14.8118C-703.248 16.721 -705.571 18.1303 -708.124 18.915C-710.677 19.6997 -713.382 19.8357 -716 19.3109V12.5357C-714.272 13.1556 -712.406 13.2674 -710.617 12.8583C-708.829 12.4492 -707.192 11.5359 -705.895 10.2241C-704.599 8.91235 -703.696 7.25579 -703.292 5.44632C-702.888 3.63685 -702.998 1.74851 -703.611 0L-696.915 0ZM254.75 0H261.446C261.02 1.21635 260.836 2.50561 260.903 3.79409C260.971 5.08257 261.288 6.345 261.838 7.50921C262.388 8.67342 263.159 9.71658 264.107 10.5791C265.056 11.4415 266.163 12.1064 267.365 12.5357V19.3109C265.284 18.8814 263.306 18.0412 261.545 16.8383C259.785 15.6353 258.275 14.0931 257.104 12.2999C255.932 10.5066 255.122 8.49732 254.718 6.38688C254.314 4.27644 254.325 2.10615 254.75 0ZM267.365 982.235V989.01C265.999 989.498 264.759 990.29 263.734 991.326C262.71 992.362 261.928 993.618 261.446 995H254.75C255.384 991.855 256.918 988.968 259.161 986.698C261.404 984.429 264.257 982.877 267.365 982.235ZM-402.229 327.303C-400.954 327.303 -399.693 327.049 -398.515 326.555C-397.338 326.062 -396.268 325.338 -395.367 324.427C-394.466 323.515 -393.751 322.432 -393.263 321.241C-392.776 320.05 -392.525 318.773 -392.525 317.484C-392.525 316.194 -392.776 314.917 -393.263 313.726C-393.751 312.535 -394.466 311.452 -395.367 310.54C-396.268 309.629 -397.338 308.905 -398.515 308.412C-399.693 307.918 -400.954 307.664 -402.229 307.664C-404.803 307.664 -407.271 308.699 -409.091 310.54C-410.911 312.382 -411.933 314.879 -411.933 317.484C-411.933 320.088 -410.911 322.585 -409.091 324.427C-407.271 326.268 -404.803 327.303 -402.229 327.303ZM-402.229 274.934C-399.655 274.934 -397.187 273.9 -395.367 272.058C-393.547 270.217 -392.525 267.719 -392.525 265.115C-392.525 262.511 -393.547 260.013 -395.367 258.172C-397.187 256.331 -399.655 255.296 -402.229 255.296C-404.803 255.296 -407.271 256.331 -409.091 258.172C-410.911 260.013 -411.933 262.511 -411.933 265.115C-411.933 267.719 -410.911 270.217 -409.091 272.058C-407.271 273.9 -404.803 274.934 -402.229 274.934ZM-350.473 327.303C-349.198 327.303 -347.936 327.049 -346.759 326.555C-345.582 326.062 -344.512 325.338 -343.611 324.427C-342.71 323.515 -341.995 322.432 -341.507 321.241C-341.019 320.05 -340.768 318.773 -340.768 317.484C-340.768 316.194 -341.019 314.917 -341.507 313.726C-341.995 312.535 -342.71 311.452 -343.611 310.54C-344.512 309.629 -345.582 308.905 -346.759 308.412C-347.936 307.918 -349.198 307.664 -350.473 307.664C-353.046 307.664 -355.515 308.699 -357.335 310.54C-359.155 312.382 -360.177 314.879 -360.177 317.484C-360.177 320.088 -359.155 322.585 -357.335 324.427C-355.515 326.268 -353.046 327.303 -350.473 327.303ZM-298.717 379.671C-296.143 379.671 -293.675 378.637 -291.855 376.795C-290.035 374.954 -289.012 372.456 -289.012 369.852C-289.012 367.248 -290.035 364.75 -291.855 362.909C-293.675 361.067 -296.143 360.033 -298.717 360.033C-301.29 360.033 -303.759 361.067 -305.579 362.909C-307.399 364.75 -308.421 367.248 -308.421 369.852C-308.421 372.456 -307.399 374.954 -305.579 376.795C-303.759 378.637 -301.29 379.671 -298.717 379.671ZM-298.717 432.039C-296.143 432.039 -293.675 431.005 -291.855 429.164C-290.035 427.322 -289.012 424.825 -289.012 422.22C-289.012 419.616 -290.035 417.119 -291.855 415.277C-293.675 413.436 -296.143 412.401 -298.717 412.401C-301.29 412.401 -303.759 413.436 -305.579 415.277C-307.399 417.119 -308.421 419.616 -308.421 422.22C-308.421 424.825 -307.399 427.322 -305.579 429.164C-303.759 431.005 -301.29 432.039 -298.717 432.039ZM-453.985 536.776C-451.411 536.776 -448.943 535.742 -447.123 533.9C-445.303 532.059 -444.281 529.561 -444.281 526.957C-444.281 524.353 -445.303 521.856 -447.123 520.014C-448.943 518.173 -451.411 517.138 -453.985 517.138C-456.559 517.138 -459.027 518.173 -460.847 520.014C-462.667 521.856 -463.689 524.353 -463.689 526.957C-463.689 529.561 -462.667 532.059 -460.847 533.9C-459.027 535.742 -456.559 536.776 -453.985 536.776ZM-402.229 589.145C-399.655 589.145 -397.187 588.11 -395.367 586.269C-393.547 584.427 -392.525 581.93 -392.525 579.326C-392.525 576.721 -393.547 574.224 -395.367 572.383C-397.187 570.541 -399.655 569.507 -402.229 569.507C-404.803 569.507 -407.271 570.541 -409.091 572.383C-410.911 574.224 -411.933 576.721 -411.933 579.326C-411.933 581.93 -410.911 584.427 -409.091 586.269C-407.271 588.11 -404.803 589.145 -402.229 589.145ZM-298.717 746.25C-296.143 746.25 -293.675 745.215 -291.855 743.374C-290.035 741.533 -289.012 739.035 -289.012 736.431C-289.012 733.827 -290.035 731.329 -291.855 729.488C-293.675 727.646 -296.143 726.612 -298.717 726.612C-301.29 726.612 -303.759 727.646 -305.579 729.488C-307.399 731.329 -308.421 733.827 -308.421 736.431C-308.421 739.035 -307.399 741.533 -305.579 743.374C-303.759 745.215 -301.29 746.25 -298.717 746.25ZM-350.473 798.618C-347.899 798.618 -345.431 797.584 -343.611 795.742C-341.791 793.901 -340.768 791.404 -340.768 788.799C-340.768 786.195 -341.791 783.698 -343.611 781.856C-345.431 780.015 -347.899 778.98 -350.473 778.98C-353.046 778.98 -355.515 780.015 -357.335 781.856C-359.155 783.698 -360.177 786.195 -360.177 788.799C-360.177 791.404 -359.155 793.901 -357.335 795.742C-355.515 797.584 -353.046 798.618 -350.473 798.618ZM-246.961 746.25C-244.387 746.25 -241.919 745.215 -240.099 743.374C-238.279 741.533 -237.256 739.035 -237.256 736.431C-237.256 733.827 -238.279 731.329 -240.099 729.488C-241.919 727.646 -244.387 726.612 -246.961 726.612C-249.534 726.612 -252.003 727.646 -253.823 729.488C-255.642 731.329 -256.665 733.827 -256.665 736.431C-256.665 739.035 -255.642 741.533 -253.823 743.374C-252.003 745.215 -249.534 746.25 -246.961 746.25ZM-246.961 641.513C-244.387 641.513 -241.919 640.479 -240.099 638.637C-238.279 636.796 -237.256 634.298 -237.256 631.694C-237.256 629.09 -238.279 626.592 -240.099 624.751C-241.919 622.909 -244.387 621.875 -246.961 621.875C-249.534 621.875 -252.003 622.909 -253.823 624.751C-255.642 626.592 -256.665 629.09 -256.665 631.694C-256.665 634.298 -255.642 636.796 -253.823 638.637C-252.003 640.479 -249.534 641.513 -246.961 641.513ZM-195.205 746.25C-192.631 746.25 -190.162 745.215 -188.343 743.374C-186.523 741.533 -185.5 739.035 -185.5 736.431C-185.5 733.827 -186.523 731.329 -188.343 729.488C-190.162 727.646 -192.631 726.612 -195.205 726.612C-197.778 726.612 -200.247 727.646 -202.066 729.488C-203.886 731.329 -204.909 733.827 -204.909 736.431C-204.909 739.035 -203.886 741.533 -202.066 743.374C-200.247 745.215 -197.778 746.25 -195.205 746.25ZM-91.6924 798.618C-89.1187 798.618 -86.6503 797.584 -84.8304 795.742C-83.0105 793.901 -81.9881 791.404 -81.9881 788.799C-81.9881 786.195 -83.0105 783.698 -84.8304 781.856C-86.6503 780.015 -89.1187 778.98 -91.6924 778.98C-94.2661 778.98 -96.7344 780.015 -98.5543 781.856C-100.374 783.698 -101.397 786.195 -101.397 788.799C-101.397 791.404 -100.374 793.901 -98.5543 795.742C-96.7344 797.584 -94.2661 798.618 -91.6924 798.618ZM-91.6924 746.25C-89.1187 746.25 -86.6503 745.215 -84.8304 743.374C-83.0105 741.533 -81.9881 739.035 -81.9881 736.431C-81.9881 733.827 -83.0105 731.329 -84.8304 729.488C-86.6503 727.646 -89.1187 726.612 -91.6924 726.612C-94.2661 726.612 -96.7344 727.646 -98.5543 729.488C-100.374 731.329 -101.397 733.827 -101.397 736.431C-101.397 739.035 -100.374 741.533 -98.5543 743.374C-96.7344 745.215 -94.2661 746.25 -91.6924 746.25ZM-143.448 536.776C-140.875 536.776 -138.406 535.742 -136.586 533.9C-134.767 532.059 -133.744 529.561 -133.744 526.957C-133.744 524.353 -134.767 521.856 -136.586 520.014C-138.406 518.173 -140.875 517.138 -143.448 517.138C-146.022 517.138 -148.49 518.173 -150.31 520.014C-152.13 521.856 -153.153 524.353 -153.153 526.957C-153.153 529.561 -152.13 532.059 -150.31 533.9C-148.49 535.742 -146.022 536.776 -143.448 536.776ZM-91.6924 536.776C-89.1187 536.776 -86.6503 535.742 -84.8304 533.9C-83.0105 532.059 -81.9881 529.561 -81.9881 526.957C-81.9881 524.353 -83.0105 521.856 -84.8304 520.014C-86.6503 518.173 -89.1187 517.138 -91.6924 517.138C-94.2661 517.138 -96.7344 518.173 -98.5543 520.014C-100.374 521.856 -101.397 524.353 -101.397 526.957C-101.397 529.561 -100.374 532.059 -98.5543 533.9C-96.7344 535.742 -94.2661 536.776 -91.6924 536.776ZM-39.9363 850.987C-37.3625 850.987 -34.8942 849.952 -33.0743 848.111C-31.2545 846.269 -30.2321 843.772 -30.2321 841.168C-30.2321 838.564 -31.2545 836.066 -33.0743 834.225C-34.8942 832.383 -37.3625 831.349 -39.9363 831.349C-42.51 831.349 -44.9783 832.383 -46.7983 834.225C-48.6182 836.066 -49.6406 838.564 -49.6406 841.168C-49.6406 843.772 -48.6182 846.269 -46.7983 848.111C-44.9783 849.952 -42.51 850.987 -39.9363 850.987ZM-39.9363 903.355C-37.3625 903.355 -34.8942 902.321 -33.0743 900.479C-31.2545 898.638 -30.2321 896.14 -30.2321 893.536C-30.2321 890.932 -31.2545 888.435 -33.0743 886.593C-34.8942 884.752 -37.3625 883.717 -39.9363 883.717C-42.51 883.717 -44.9783 884.752 -46.7983 886.593C-48.6182 888.435 -49.6406 890.932 -49.6406 893.536C-49.6406 896.14 -48.6182 898.638 -46.7983 900.479C-44.9783 902.321 -42.51 903.355 -39.9363 903.355ZM11.8198 955.724C14.3935 955.724 16.8618 954.689 18.6818 952.848C20.5016 951.006 21.524 948.509 21.524 945.905C21.524 943.3 20.5016 940.803 18.6818 938.961C16.8618 937.12 14.3935 936.086 11.8198 936.086C9.24603 936.086 6.77771 937.12 4.95782 938.961C3.13794 940.803 2.11554 943.3 2.11554 945.905C2.11554 948.509 3.13794 951.006 4.95782 952.848C6.77771 954.689 9.24603 955.724 11.8198 955.724ZM63.5759 484.408C66.1496 484.408 68.6179 483.373 70.4378 481.532C72.2577 479.691 73.2801 477.193 73.2801 474.589C73.2801 471.985 72.2577 469.487 70.4378 467.646C68.6179 465.804 66.1496 464.77 63.5759 464.77C61.0021 464.77 58.5338 465.804 56.7139 467.646C54.894 469.487 53.8716 471.985 53.8716 474.589C53.8716 477.193 54.894 479.691 56.7139 481.532C58.5338 483.373 61.0021 484.408 63.5759 484.408ZM63.5759 589.145C66.1496 589.145 68.6179 588.11 70.4378 586.269C72.2577 584.427 73.2801 581.93 73.2801 579.326C73.2801 576.721 72.2577 574.224 70.4378 572.383C68.6179 570.541 66.1496 569.507 63.5759 569.507C61.0021 569.507 58.5338 570.541 56.7139 572.383C54.894 574.224 53.8716 576.721 53.8716 579.326C53.8716 581.93 54.894 584.427 56.7139 586.269C58.5338 588.11 61.0021 589.145 63.5759 589.145ZM115.332 484.408C117.906 484.408 120.374 483.373 122.194 481.532C124.014 479.691 125.036 477.193 125.036 474.589C125.036 471.985 124.014 469.487 122.194 467.646C120.374 465.804 117.906 464.77 115.332 464.77C112.758 464.77 110.29 465.804 108.47 467.646C106.65 469.487 105.628 471.985 105.628 474.589C105.628 477.193 106.65 479.691 108.47 481.532C110.29 483.373 112.758 484.408 115.332 484.408ZM167.088 432.039C169.662 432.039 172.13 431.005 173.95 429.164C175.77 427.322 176.792 424.825 176.792 422.22C176.792 419.616 175.77 417.119 173.95 415.277C172.13 413.436 169.662 412.401 167.088 412.401C164.514 412.401 162.046 413.436 160.226 415.277C158.406 417.119 157.384 419.616 157.384 422.22C157.384 424.825 158.406 427.322 160.226 429.164C162.046 431.005 164.514 432.039 167.088 432.039ZM-143.448 432.039C-140.875 432.039 -138.406 431.005 -136.586 429.164C-134.767 427.322 -133.744 424.825 -133.744 422.22C-133.744 419.616 -134.767 417.119 -136.586 415.277C-138.406 413.436 -140.875 412.401 -143.448 412.401C-146.022 412.401 -148.49 413.436 -150.31 415.277C-152.13 417.119 -153.153 419.616 -153.153 422.22C-153.153 424.825 -152.13 427.322 -150.31 429.164C-148.49 431.005 -146.022 432.039 -143.448 432.039ZM-143.448 484.408C-140.875 484.408 -138.406 483.373 -136.586 481.532C-134.767 479.691 -133.744 477.193 -133.744 474.589C-133.744 471.985 -134.767 469.487 -136.586 467.646C-138.406 465.804 -140.875 464.77 -143.448 464.77C-146.022 464.77 -148.49 465.804 -150.31 467.646C-152.13 469.487 -153.153 471.985 -153.153 474.589C-153.153 477.193 -152.13 479.691 -150.31 481.532C-148.49 483.373 -146.022 484.408 -143.448 484.408ZM-91.6924 379.671C-89.1187 379.671 -86.6503 378.637 -84.8304 376.795C-83.0105 374.954 -81.9881 372.456 -81.9881 369.852C-81.9881 367.248 -83.0105 364.75 -84.8304 362.909C-86.6503 361.067 -89.1187 360.033 -91.6924 360.033C-94.2661 360.033 -96.7344 361.067 -98.5543 362.909C-100.374 364.75 -101.397 367.248 -101.397 369.852C-101.397 372.456 -100.374 374.954 -98.5543 376.795C-96.7344 378.637 -94.2661 379.671 -91.6924 379.671ZM218.844 379.671C221.418 379.671 223.886 378.637 225.706 376.795C227.526 374.954 228.548 372.456 228.548 369.852C228.548 367.248 227.526 364.75 225.706 362.909C223.886 361.067 221.418 360.033 218.844 360.033C216.27 360.033 213.802 361.067 211.982 362.909C210.162 364.75 209.14 367.248 209.14 369.852C209.14 372.456 210.162 374.954 211.982 376.795C213.802 378.637 216.27 379.671 218.844 379.671ZM167.088 170.197C169.662 170.197 172.13 169.163 173.95 167.321C175.77 165.48 176.792 162.982 176.792 160.378C176.792 157.774 175.77 155.277 173.95 153.435C172.13 151.594 169.662 150.559 167.088 150.559C164.514 150.559 162.046 151.594 160.226 153.435C158.406 155.277 157.384 157.774 157.384 160.378C157.384 162.982 158.406 165.48 160.226 167.321C162.046 169.163 164.514 170.197 167.088 170.197ZM218.844 117.829C221.418 117.829 223.886 116.794 225.706 114.953C227.526 113.112 228.548 110.614 228.548 108.01C228.548 105.406 227.526 102.908 225.706 101.067C223.886 99.2253 221.418 98.1908 218.844 98.1908C216.27 98.1908 213.802 99.2253 211.982 101.067C210.162 102.908 209.14 105.406 209.14 108.01C209.14 110.614 210.162 113.112 211.982 114.953C213.802 116.794 216.27 117.829 218.844 117.829ZM115.332 117.829C117.906 117.829 120.374 116.794 122.194 114.953C124.014 113.112 125.036 110.614 125.036 108.01C125.036 105.406 124.014 102.908 122.194 101.067C120.374 99.2253 117.906 98.1908 115.332 98.1908C112.758 98.1908 110.29 99.2253 108.47 101.067C106.65 102.908 105.628 105.406 105.628 108.01C105.628 110.614 106.65 113.112 108.47 114.953C110.29 116.794 112.758 117.829 115.332 117.829ZM115.332 65.4605C117.906 65.4605 120.374 64.426 122.194 62.5846C124.014 60.7431 125.036 58.2456 125.036 55.6414C125.036 53.0373 124.014 50.5397 122.194 48.6983C120.374 46.8569 117.906 45.8224 115.332 45.8224C112.758 45.8224 110.29 46.8569 108.47 48.6983C106.65 50.5397 105.628 53.0373 105.628 55.6414C105.628 58.2456 106.65 60.7431 108.47 62.5846C110.29 64.426 112.758 65.4605 115.332 65.4605ZM63.5759 65.4605C66.1496 65.4605 68.6179 64.426 70.4378 62.5846C72.2577 60.7431 73.2801 58.2456 73.2801 55.6414C73.2801 53.0373 72.2577 50.5397 70.4378 48.6983C68.6179 46.8569 66.1496 45.8224 63.5759 45.8224C61.0021 45.8224 58.5338 46.8569 56.7139 48.6983C54.894 50.5397 53.8716 53.0373 53.8716 55.6414C53.8716 58.2456 54.894 60.7431 56.7139 62.5846C58.5338 64.426 61.0021 65.4605 63.5759 65.4605ZM11.8198 65.4605C14.3935 65.4605 16.8618 64.426 18.6818 62.5846C20.5016 60.7431 21.524 58.2456 21.524 55.6414C21.524 53.0373 20.5016 50.5397 18.6818 48.6983C16.8618 46.8569 14.3935 45.8224 11.8198 45.8224C9.24603 45.8224 6.77771 46.8569 4.95782 48.6983C3.13794 50.5397 2.11554 53.0373 2.11554 55.6414C2.11554 58.2456 3.13794 60.7431 4.95782 62.5846C6.77771 64.426 9.24603 65.4605 11.8198 65.4605ZM-39.9363 65.4605C-37.3625 65.4605 -34.8942 64.426 -33.0743 62.5846C-31.2545 60.7431 -30.2321 58.2456 -30.2321 55.6414C-30.2321 53.0373 -31.2545 50.5397 -33.0743 48.6983C-34.8942 46.8569 -37.3625 45.8224 -39.9363 45.8224C-42.51 45.8224 -44.9783 46.8569 -46.7983 48.6983C-48.6182 50.5397 -49.6406 53.0373 -49.6406 55.6414C-49.6406 58.2456 -48.6182 60.7431 -46.7983 62.5846C-44.9783 64.426 -42.51 65.4605 -39.9363 65.4605ZM-557.497 117.829C-554.923 117.829 -552.455 116.794 -550.635 114.953C-548.815 113.112 -547.793 110.614 -547.793 108.01C-547.793 105.406 -548.815 102.908 -550.635 101.067C-552.455 99.2253 -554.923 98.1908 -557.497 98.1908C-560.071 98.1908 -562.539 99.2253 -564.359 101.067C-566.179 102.908 -567.201 105.406 -567.201 108.01C-567.201 110.614 -566.179 113.112 -564.359 114.953C-562.539 116.794 -560.071 117.829 -557.497 117.829ZM-661.009 117.829C-658.435 117.829 -655.967 116.794 -654.147 114.953C-652.327 113.112 -651.305 110.614 -651.305 108.01C-651.305 105.406 -652.327 102.908 -654.147 101.067C-655.967 99.2253 -658.435 98.1908 -661.009 98.1908C-663.583 98.1908 -666.051 99.2253 -667.871 101.067C-669.691 102.908 -670.713 105.406 -670.713 108.01C-670.713 110.614 -669.691 113.112 -667.871 114.953C-666.051 116.794 -663.583 117.829 -661.009 117.829ZM-557.497 170.197C-554.923 170.197 -552.455 169.163 -550.635 167.321C-548.815 165.48 -547.793 162.982 -547.793 160.378C-547.793 157.774 -548.815 155.277 -550.635 153.435C-552.455 151.594 -554.923 150.559 -557.497 150.559C-560.071 150.559 -562.539 151.594 -564.359 153.435C-566.179 155.277 -567.201 157.774 -567.201 160.378C-567.201 162.982 -566.179 165.48 -564.359 167.321C-562.539 169.163 -560.071 170.197 -557.497 170.197ZM-609.253 222.566C-606.679 222.566 -604.211 221.531 -602.391 219.69C-600.571 217.848 -599.549 215.351 -599.549 212.747C-599.549 210.143 -600.571 207.645 -602.391 205.804C-604.211 203.962 -606.679 202.928 -609.253 202.928C-611.827 202.928 -614.295 203.962 -616.115 205.804C-617.935 207.645 -618.957 210.143 -618.957 212.747C-618.957 215.351 -617.935 217.848 -616.115 219.69C-614.295 221.531 -611.827 222.566 -609.253 222.566ZM-557.497 65.4605C-554.923 65.4605 -552.455 64.426 -550.635 62.5846C-548.815 60.7431 -547.793 58.2456 -547.793 55.6414C-547.793 53.0373 -548.815 50.5397 -550.635 48.6983C-552.455 46.8569 -554.923 45.8224 -557.497 45.8224C-560.071 45.8224 -562.539 46.8569 -564.359 48.6983C-566.179 50.5397 -567.201 53.0373 -567.201 55.6414C-567.201 58.2456 -566.179 60.7431 -564.359 62.5846C-562.539 64.426 -560.071 65.4605 -557.497 65.4605ZM-557.497 850.987C-554.923 850.987 -552.455 849.952 -550.635 848.111C-548.815 846.269 -547.793 843.772 -547.793 841.168C-547.793 838.564 -548.815 836.066 -550.635 834.225C-552.455 832.383 -554.923 831.349 -557.497 831.349C-560.071 831.349 -562.539 832.383 -564.359 834.225C-566.179 836.066 -567.201 838.564 -567.201 841.168C-567.201 843.772 -566.179 846.269 -564.359 848.111C-562.539 849.952 -560.071 850.987 -557.497 850.987ZM-505.741 955.724C-503.167 955.724 -500.699 954.689 -498.879 952.848C-497.059 951.006 -496.037 948.509 -496.037 945.905C-496.037 943.3 -497.059 940.803 -498.879 938.961C-500.699 937.12 -503.167 936.086 -505.741 936.086C-508.315 936.086 -510.783 937.12 -512.603 938.961C-514.423 940.803 -515.445 943.3 -515.445 945.905C-515.445 948.509 -514.423 951.006 -512.603 952.848C-510.783 954.689 -508.315 955.724 -505.741 955.724ZM-557.497 746.25C-554.923 746.25 -552.455 745.215 -550.635 743.374C-548.815 741.533 -547.793 739.035 -547.793 736.431C-547.793 733.827 -548.815 731.329 -550.635 729.488C-552.455 727.646 -554.923 726.612 -557.497 726.612C-560.071 726.612 -562.539 727.646 -564.359 729.488C-566.179 731.329 -567.201 733.827 -567.201 736.431C-567.201 739.035 -566.179 741.533 -564.359 743.374C-562.539 745.215 -560.071 746.25 -557.497 746.25ZM-557.497 798.618C-554.923 798.618 -552.455 797.584 -550.635 795.742C-548.815 793.901 -547.793 791.404 -547.793 788.799C-547.793 786.195 -548.815 783.698 -550.635 781.856C-552.455 780.015 -554.923 778.98 -557.497 778.98C-560.071 778.98 -562.539 780.015 -564.359 781.856C-566.179 783.698 -567.201 786.195 -567.201 788.799C-567.201 791.404 -566.179 793.901 -564.359 795.742C-562.539 797.584 -560.071 798.618 -557.497 798.618ZM-609.253 693.882C-606.679 693.882 -604.211 692.847 -602.391 691.006C-600.571 689.164 -599.549 686.667 -599.549 684.062C-599.549 681.458 -600.571 678.961 -602.391 677.119C-604.211 675.278 -606.679 674.243 -609.253 674.243C-611.827 674.243 -614.295 675.278 -616.115 677.119C-617.935 678.961 -618.957 681.458 -618.957 684.062C-618.957 686.667 -617.935 689.164 -616.115 691.006C-614.295 692.847 -611.827 693.882 -609.253 693.882ZM-350.473 117.829C-347.899 117.829 -345.431 116.794 -343.611 114.953C-341.791 113.112 -340.768 110.614 -340.768 108.01C-340.768 105.406 -341.791 102.908 -343.611 101.067C-345.431 99.2253 -347.899 98.1908 -350.473 98.1908C-353.046 98.1908 -355.515 99.2253 -357.335 101.067C-359.155 102.908 -360.177 105.406 -360.177 108.01C-360.177 110.614 -359.155 113.112 -357.335 114.953C-355.515 116.794 -353.046 117.829 -350.473 117.829ZM-298.717 117.829C-296.143 117.829 -293.675 116.794 -291.855 114.953C-290.035 113.112 -289.012 110.614 -289.012 108.01C-289.012 105.406 -290.035 102.908 -291.855 101.067C-293.675 99.2253 -296.143 98.1908 -298.717 98.1908C-301.29 98.1908 -303.759 99.2253 -305.579 101.067C-307.399 102.908 -308.421 105.406 -308.421 108.01C-308.421 110.614 -307.399 113.112 -305.579 114.953C-303.759 116.794 -301.29 117.829 -298.717 117.829ZM-350.473 65.4605C-347.899 65.4605 -345.431 64.426 -343.611 62.5846C-341.791 60.7431 -340.768 58.2456 -340.768 55.6414C-340.768 53.0373 -341.791 50.5397 -343.611 48.6983C-345.431 46.8569 -347.899 45.8224 -350.473 45.8224C-353.046 45.8224 -355.515 46.8569 -357.335 48.6983C-359.155 50.5397 -360.177 53.0373 -360.177 55.6414C-360.177 58.2456 -359.155 60.7431 -357.335 62.5846C-355.515 64.426 -353.046 65.4605 -350.473 65.4605ZM-246.961 222.566C-244.387 222.566 -241.919 221.531 -240.099 219.69C-238.279 217.848 -237.256 215.351 -237.256 212.747C-237.256 210.143 -238.279 207.645 -240.099 205.804C-241.919 203.962 -244.387 202.928 -246.961 202.928C-249.534 202.928 -252.003 203.962 -253.823 205.804C-255.642 207.645 -256.665 210.143 -256.665 212.747C-256.665 215.351 -255.642 217.848 -253.823 219.69C-252.003 221.531 -249.534 222.566 -246.961 222.566ZM-195.205 170.197C-192.631 170.197 -190.162 169.163 -188.343 167.321C-186.523 165.48 -185.5 162.982 -185.5 160.378C-185.5 157.774 -186.523 155.277 -188.343 153.435C-190.162 151.594 -192.631 150.559 -195.205 150.559C-197.778 150.559 -200.247 151.594 -202.066 153.435C-203.886 155.277 -204.909 157.774 -204.909 160.378C-204.909 162.982 -203.886 165.48 -202.066 167.321C-200.247 169.163 -197.778 170.197 -195.205 170.197ZM-195.205 65.4605C-192.631 65.4605 -190.162 64.426 -188.343 62.5846C-186.523 60.7431 -185.5 58.2456 -185.5 55.6414C-185.5 53.0373 -186.523 50.5397 -188.343 48.6983C-190.162 46.8569 -192.631 45.8224 -195.205 45.8224C-197.778 45.8224 -200.247 46.8569 -202.066 48.6983C-203.886 50.5397 -204.909 53.0373 -204.909 55.6414C-204.909 58.2456 -203.886 60.7431 -202.066 62.5846C-200.247 64.426 -197.778 65.4605 -195.205 65.4605ZM167.088 641.513C169.662 641.513 172.13 640.479 173.95 638.637C175.77 636.796 176.792 634.298 176.792 631.694C176.792 629.09 175.77 626.592 173.95 624.751C172.13 622.909 169.662 621.875 167.088 621.875C164.514 621.875 162.046 622.909 160.226 624.751C158.406 626.592 157.384 629.09 157.384 631.694C157.384 634.298 158.406 636.796 160.226 638.637C162.046 640.479 164.514 641.513 167.088 641.513ZM115.332 693.882C117.906 693.882 120.374 692.847 122.194 691.006C124.014 689.164 125.036 686.667 125.036 684.062C125.036 681.458 124.014 678.961 122.194 677.119C120.374 675.278 117.906 674.243 115.332 674.243C112.758 674.243 110.29 675.278 108.47 677.119C106.65 678.961 105.628 681.458 105.628 684.062C105.628 686.667 106.65 689.164 108.47 691.006C110.29 692.847 112.758 693.882 115.332 693.882ZM115.332 746.25C117.906 746.25 120.374 745.215 122.194 743.374C124.014 741.533 125.036 739.035 125.036 736.431C125.036 733.827 124.014 731.329 122.194 729.488C120.374 727.646 117.906 726.612 115.332 726.612C112.758 726.612 110.29 727.646 108.47 729.488C106.65 731.329 105.628 733.827 105.628 736.431C105.628 739.035 106.65 741.533 108.47 743.374C110.29 745.215 112.758 746.25 115.332 746.25ZM115.332 798.618C117.906 798.618 120.374 797.584 122.194 795.742C124.014 793.901 125.036 791.404 125.036 788.799C125.036 786.195 124.014 783.698 122.194 781.856C120.374 780.015 117.906 778.98 115.332 778.98C112.758 778.98 110.29 780.015 108.47 781.856C106.65 783.698 105.628 786.195 105.628 788.799C105.628 791.404 106.65 793.901 108.47 795.742C110.29 797.584 112.758 798.618 115.332 798.618ZM-661.009 589.145C-658.435 589.145 -655.967 588.11 -654.147 586.269C-652.327 584.427 -651.305 581.93 -651.305 579.326C-651.305 576.721 -652.327 574.224 -654.147 572.383C-655.967 570.541 -658.435 569.507 -661.009 569.507C-663.583 569.507 -666.051 570.541 -667.871 572.383C-669.691 574.224 -670.713 576.721 -670.713 579.326C-670.713 581.93 -669.691 584.427 -667.871 586.269C-666.051 588.11 -663.583 589.145 -661.009 589.145ZM-661.009 641.513C-658.435 641.513 -655.967 640.479 -654.147 638.637C-652.327 636.796 -651.305 634.298 -651.305 631.694C-651.305 629.09 -652.327 626.592 -654.147 624.751C-655.967 622.909 -658.435 621.875 -661.009 621.875C-663.583 621.875 -666.051 622.909 -667.871 624.751C-669.691 626.592 -670.713 629.09 -670.713 631.694C-670.713 634.298 -669.691 636.796 -667.871 638.637C-666.051 640.479 -663.583 641.513 -661.009 641.513ZM-661.009 536.776C-658.435 536.776 -655.967 535.742 -654.147 533.9C-652.327 532.059 -651.305 529.561 -651.305 526.957C-651.305 524.353 -652.327 521.856 -654.147 520.014C-655.967 518.173 -658.435 517.138 -661.009 517.138C-663.583 517.138 -666.051 518.173 -667.871 520.014C-669.691 521.856 -670.713 524.353 -670.713 526.957C-670.713 529.561 -669.691 532.059 -667.871 533.9C-666.051 535.742 -663.583 536.776 -661.009 536.776ZM-609.253 536.776C-606.679 536.776 -604.211 535.742 -602.391 533.9C-600.571 532.059 -599.549 529.561 -599.549 526.957C-599.549 524.353 -600.571 521.856 -602.391 520.014C-604.211 518.173 -606.679 517.138 -609.253 517.138C-611.827 517.138 -614.295 518.173 -616.115 520.014C-617.935 521.856 -618.957 524.353 -618.957 526.957C-618.957 529.561 -617.935 532.059 -616.115 533.9C-614.295 535.742 -611.827 536.776 -609.253 536.776ZM-661.009 274.934C-658.435 274.934 -655.967 273.9 -654.147 272.058C-652.327 270.217 -651.305 267.719 -651.305 265.115C-651.305 262.511 -652.327 260.013 -654.147 258.172C-655.967 256.331 -658.435 255.296 -661.009 255.296C-663.583 255.296 -666.051 256.331 -667.871 258.172C-669.691 260.013 -670.713 262.511 -670.713 265.115C-670.713 267.719 -669.691 270.217 -667.871 272.058C-666.051 273.9 -663.583 274.934 -661.009 274.934ZM-557.497 484.408C-554.923 484.408 -552.455 483.373 -550.635 481.532C-548.815 479.691 -547.793 477.193 -547.793 474.589C-547.793 471.985 -548.815 469.487 -550.635 467.646C-552.455 465.804 -554.923 464.77 -557.497 464.77C-560.071 464.77 -562.539 465.804 -564.359 467.646C-566.179 469.487 -567.201 471.985 -567.201 474.589C-567.201 477.193 -566.179 479.691 -564.359 481.532C-562.539 483.373 -560.071 484.408 -557.497 484.408ZM-505.741 432.039C-503.167 432.039 -500.699 431.005 -498.879 429.164C-497.059 427.322 -496.037 424.825 -496.037 422.22C-496.037 419.616 -497.059 417.119 -498.879 415.277C-500.699 413.436 -503.167 412.401 -505.741 412.401C-508.315 412.401 -510.783 413.436 -512.603 415.277C-514.423 417.119 -515.445 419.616 -515.445 422.22C-515.445 424.825 -514.423 427.322 -512.603 429.164C-510.783 431.005 -508.315 432.039 -505.741 432.039Z" fill="url(#paint0_linear_49_9166)"/>
<defs>
<linearGradient id="paint0_linear_49_9166" x1="-716" y1="445.318" x2="267.369" y2="458.184" gradientUnits="userSpaceOnUse">
<stop stop-color="#272526" stop-opacity="0.69"/>
<stop offset="1" stop-color="#1F1A1C" stop-opacity="0"/>
</linearGradient>
</defs>
</svg>
