<svg width="36" height="37" viewBox="0 0 36 37" fill="none" xmlns="http://www.w3.org/2000/svg">
<g id="Community">
<circle id="Ellipse 1642" cx="18" cy="18.5" r="18" fill="white"/>
<g id="Group 627597">
<g id="Group 627595">
<g id="Group 627593">
<path id="Vector" d="M9.48065 17.8597C11.1152 17.8597 12.4403 16.5347 12.4403 14.9001C12.4403 13.2655 11.1152 11.9404 9.48065 11.9404C7.84608 11.9404 6.521 13.2655 6.521 14.9001C6.521 16.5347 7.84608 17.8597 9.48065 17.8597Z" fill="#1B2124"/>
<path id="Vector_2" d="M12.8513 19.5038C11.6938 18.9159 10.4162 18.6816 9.48059 18.6816C7.64807 18.6816 3.89014 19.8055 3.89014 22.0524V23.7788H10.0561V23.1182C10.0561 22.3372 10.3849 21.5541 10.9604 20.9014C11.4196 20.3802 12.0625 19.8963 12.8513 19.5038Z" fill="#1B2124"/>
</g>
<g id="Group 627594">
<path id="Vector_3" d="M25.0189 17.8597C23.3843 17.8597 22.0592 16.5347 22.0592 14.9001C22.0592 13.2655 23.3843 11.9404 25.0189 11.9404C26.6534 11.9404 27.9785 13.2655 27.9785 14.9001C27.9785 16.5347 26.6534 17.8597 25.0189 17.8597Z" fill="#1B2124"/>
<path id="Vector_4" d="M21.6482 19.5047C22.8058 18.9169 24.0833 18.6826 25.0189 18.6826C26.8514 18.6826 30.6094 19.8065 30.6094 22.0533V23.7798H24.4434V23.1192C24.4434 22.3382 24.1146 21.5551 23.5391 20.9024C23.0799 20.3811 22.437 19.8973 21.6482 19.5047Z" fill="#1B2124"/>
</g>
<path id="Vector_5" d="M17.209 19.1748C15.0686 19.1748 10.7964 20.4968 10.7964 23.121V25.0941H23.6216V23.121C23.6216 20.4968 19.3494 19.1748 17.209 19.1748Z" fill="#1B2124"/>
<path id="Vector_6" d="M17.2092 17.8597C19.207 17.8597 20.8265 16.2402 20.8265 14.2424C20.8265 12.2445 19.207 10.625 17.2092 10.625C15.2113 10.625 13.5918 12.2445 13.5918 14.2424C13.5918 16.2402 15.2113 17.8597 17.2092 17.8597Z" fill="#1B2124"/>
</g>
</g>
</g>
</svg>
